<svg id="Layer_1" data-name="Layer 1" xmlns="http://www.w3.org/2000/svg" width="1240" height="526" viewBox="0 0 1240 526">
  <title>dynamic_programming_formula</title>
  <g>
    <path d="M768.24,529a11.68,11.68,0,0,1-5,1c-5.26,0-8.68-3.57-8.68-8.89s3.68-9.26,9.36-9.26a10.6,10.6,0,0,1,4.39.9l-.72,2.45a7.33,7.33,0,0,0-3.67-.83c-4,0-6.15,3-6.15,6.59,0,4,2.59,6.52,6,6.52a8.94,8.94,0,0,0,3.89-.87Z" transform="translate(-584 -271)"/>
    <path d="M773.5,521.47c.07,4.28,2.81,6,6,6a11.55,11.55,0,0,0,4.83-.9l.54,2.27A14.23,14.23,0,0,1,779,530c-5.36,0-8.56-3.53-8.56-8.79s3.09-9.39,8.17-9.39c5.68,0,7.2,5,7.2,8.21a13.13,13.13,0,0,1-.11,1.47Zm9.29-2.27c0-2-.83-5.14-4.4-5.14-3.2,0-4.6,3-4.85,5.14Z" transform="translate(-584 -271)"/>
    <path d="M789.77,504.05h3.17v25.56h-3.17Z" transform="translate(-584 -271)"/>
    <path d="M798.27,504.05h3.16v25.56h-3.16Z" transform="translate(-584 -271)"/>
    <path d="M814.72,533.64V505h6.59v2h-4.14v24.73h4.14v2Z" transform="translate(-584 -271)"/>
    <path d="M828.15,507.29a2,2,0,0,1-3.93,0,1.93,1.93,0,0,1,2-2A1.88,1.88,0,0,1,828.15,507.29Zm-3.53,22.32V512.18h3.17v17.43Z" transform="translate(-584 -271)"/>
    <path d="M837.69,504.91v28.73H831.1v-2h4.14V506.89H831.1v-2Z" transform="translate(-584 -271)"/>
    <path d="M843.59,533.64V505h6.59v2H846v24.73h4.14v2Z" transform="translate(-584 -271)"/>
    <path d="M851.26,534.65a5.1,5.1,0,0,0,3.45-1.34c.87-1,1.19-2.37,1.19-6.55V512.18h3.17V528c0,3.38-.54,5.58-2.09,7.16a8.06,8.06,0,0,1-5.4,2Zm8.17-27.36a1.86,1.86,0,0,1-2,1.94,1.89,1.89,0,0,1-1.94-1.94,1.93,1.93,0,0,1,2-2A1.87,1.87,0,0,1,859.43,507.29Z" transform="translate(-584 -271)"/>
    <path d="M868.9,504.91v28.73h-6.59v-2h4.14V506.89h-4.14v-2Z" transform="translate(-584 -271)"/>
    <path d="M880.92,517.48v-2.16H899.5v2.16Zm0,7v-2.16H899.5v2.16Z" transform="translate(-584 -271)"/>
    <path d="M911.2,516.9c0-1.8,0-3.28-.15-4.72h2.77L914,515h.11a6,6,0,0,1,5.47-3.2,5.16,5.16,0,0,1,4.93,3.49h.07a7.2,7.2,0,0,1,1.94-2.27,6,6,0,0,1,3.86-1.22c2.3,0,5.72,1.51,5.72,7.56v10.26H933v-9.87c0-3.34-1.22-5.36-3.78-5.36a4.09,4.09,0,0,0-3.74,2.88,5.34,5.34,0,0,0-.25,1.58v10.77h-3.1V519.17c0-2.77-1.22-4.79-3.63-4.79a4.34,4.34,0,0,0-3.93,3.17,4.38,4.38,0,0,0-.25,1.55v10.51H911.2Z" transform="translate(-584 -271)"/>
    <path d="M950.87,529.61l-.25-2.2h-.11a6.49,6.49,0,0,1-5.33,2.59,5,5,0,0,1-5.33-5c0-4.21,3.75-6.52,10.48-6.48v-.36c0-1.44-.4-4-4-4a8.73,8.73,0,0,0-4.54,1.29l-.72-2.08a10.79,10.79,0,0,1,5.73-1.55c5.32,0,6.62,3.63,6.62,7.13v6.51a24.19,24.19,0,0,0,.29,4.18Zm-.47-8.89c-3.46-.08-7.38.54-7.38,3.92a2.8,2.8,0,0,0,3,3,4.33,4.33,0,0,0,4.21-2.91,3.31,3.31,0,0,0,.18-1Z" transform="translate(-584 -271)"/>
    <path d="M960.05,512.18l2.48,3.75c.65,1,1.19,1.87,1.77,2.84h.1c.58-1,1.16-1.94,1.73-2.88l2.45-3.71H972l-5.94,8.43,6.12,9h-3.6L966,525.68c-.68-1-1.26-2-1.87-3h-.07c-.58,1-1.19,2-1.84,3l-2.52,3.93h-3.49l6.19-8.89-5.9-8.54Z" transform="translate(-584 -271)"/>
    <path d="M998.64,520.75c0,6.44-4.47,9.25-8.68,9.25-4.71,0-8.35-3.45-8.35-9,0-5.83,3.82-9.25,8.64-9.25C995.25,511.79,998.64,515.42,998.64,520.75Zm-13.82.18c0,3.82,2.19,6.7,5.29,6.7s5.29-2.85,5.29-6.77c0-3-1.48-6.7-5.22-6.7S984.82,517.62,984.82,520.93Z" transform="translate(-584 -271)"/>
    <path d="M1003,529.61v-15h-2.45v-2.42H1003v-.82c0-2.45.54-4.68,2-6.09a6.09,6.09,0,0,1,4.25-1.62,7.35,7.35,0,0,1,2.7.51l-.43,2.45a4.66,4.66,0,0,0-2-.4c-2.69,0-3.38,2.37-3.38,5v.93h4.21v2.42h-4.21v15Z" transform="translate(-584 -271)"/>
  </g>
  <g>
    <path d="M754.8,437.34c0-1.37,0-2.55-.09-3.63h1.84l.08,2.28h.09a3.48,3.48,0,0,1,3.22-2.54,2.2,2.2,0,0,1,.6.07v2a3.74,3.74,0,0,0-.72-.07,3,3,0,0,0-2.83,2.71,5.81,5.81,0,0,0-.1,1v6.19H754.8Z" transform="translate(-584 -271)"/>
    <path d="M772.92,439.43c0,4.29-3,6.17-5.78,6.17-3.15,0-5.57-2.31-5.57-6,0-3.89,2.54-6.17,5.76-6.17S772.92,435.87,772.92,439.43Zm-9.21.12c0,2.54,1.46,4.46,3.52,4.46s3.53-1.9,3.53-4.51c0-2-1-4.47-3.48-4.47S763.71,437.34,763.71,439.55Z" transform="translate(-584 -271)"/>
    <path d="M776.26,433.71l1.53,5.91c.34,1.29.65,2.49.87,3.69h.07c.26-1.17.65-2.42,1-3.67l1.9-5.93h1.77l1.8,5.81c.44,1.39.77,2.62,1,3.79h.07a33,33,0,0,1,.89-3.76l1.65-5.84H791l-3.74,11.62h-1.92l-1.78-5.54a38.94,38.94,0,0,1-1-3.82h0a34.61,34.61,0,0,1-1.06,3.84l-1.87,5.52H777.6l-3.5-11.62Z" transform="translate(-584 -271)"/>
  </g>
  <g>
    <path d="M857.08,444.9a7.72,7.72,0,0,1-3.33.67c-3.51,0-5.79-2.38-5.79-5.93a5.91,5.91,0,0,1,6.24-6.17,7.21,7.21,0,0,1,2.93.6l-.48,1.64a4.87,4.87,0,0,0-2.45-.56c-2.66,0-4.1,2-4.1,4.4,0,2.68,1.73,4.34,4,4.34a5.9,5.9,0,0,0,2.59-.58Z" transform="translate(-584 -271)"/>
    <path d="M869.92,439.43c0,4.29-3,6.17-5.78,6.17-3.15,0-5.57-2.31-5.57-6,0-3.89,2.54-6.17,5.76-6.17S869.92,435.87,869.92,439.43Zm-9.21.12c0,2.54,1.46,4.46,3.52,4.46s3.53-1.9,3.53-4.51c0-2-1-4.47-3.48-4.47S860.71,437.34,860.71,439.55Z" transform="translate(-584 -271)"/>
    <path d="M872.58,428.29h2.12v17h-2.12Z" transform="translate(-584 -271)"/>
    <path d="M888,442.16c0,1.2,0,2.26.1,3.17h-1.88l-.12-1.89h0a4.4,4.4,0,0,1-3.84,2.16c-1.83,0-4-1-4-5.09v-6.8h2.11v6.44c0,2.2.67,3.69,2.59,3.69a3,3,0,0,0,3-3v-7.13H888Z" transform="translate(-584 -271)"/>
    <path d="M891.47,436.86c0-1.2,0-2.19-.09-3.15h1.85l.09,1.88h.07a4,4,0,0,1,3.65-2.14,3.43,3.43,0,0,1,3.29,2.33h0a4.74,4.74,0,0,1,1.29-1.51,4,4,0,0,1,2.57-.82c1.54,0,3.82,1,3.82,5v6.84H906v-6.58c0-2.23-.81-3.57-2.52-3.57A2.73,2.73,0,0,0,901,437.1a3.35,3.35,0,0,0-.17,1v7.18h-2.06v-7c0-1.85-.82-3.19-2.43-3.19a2.87,2.87,0,0,0-2.61,2.11,2.69,2.69,0,0,0-.17,1v7h-2.07Z" transform="translate(-584 -271)"/>
    <path d="M911.49,436.86c0-1.2,0-2.19-.1-3.15h1.88l.12,1.92h0a4.28,4.28,0,0,1,3.84-2.18c1.61,0,4.11,1,4.11,4.94v6.94h-2.11v-6.7c0-1.87-.7-3.43-2.69-3.43a3.12,3.12,0,0,0-3,3.15v7h-2.11Z" transform="translate(-584 -271)"/>
  </g>
  <g>
    <line x1="214" y1="160" x2="244" y2="231"/>
    <polygon points="212.54 160.62 233.67 210.63 223.01 215.13 244 231 247.25 204.89 236.59 209.39 215.46 159.38 212.54 160.62" fill="#202020"/>
  </g>
  <g>
    <line x1="243" y1="159" x2="273" y2="230"/>
    <polygon points="241.54 159.62 262.67 209.63 252.01 214.13 273 230 276.25 203.89 265.59 208.39 244.46 158.38 241.54 159.62" fill="#202020"/>
  </g>
  <g>
    <line x1="935" y1="390" x2="965" y2="319"/>
    <polygon points="936.46 390.62 957.59 340.61 968.25 345.11 965 319 944.02 334.87 954.67 339.37 933.53 389.38 936.46 390.62" fill="#202020"/>
  </g>
  <path d="M1071.5,404.5s-12,22-12,57-22,47-22,47" transform="translate(-584 -271)" fill="none" stroke="#000" stroke-miterlimit="10"/>
  <path d="M1071.5,631.5s-12-22-12-57-22-47-22-47" transform="translate(-584 -271)" fill="none" stroke="#000" stroke-miterlimit="10"/>
  <g>
    <path d="M1092.42,452.18h-.05l-2.71,1.46-.41-1.61,3.41-1.82h1.8v15.6h-2Z" transform="translate(-584 -271)"/>
    <path d="M1100.32,464.56a1.42,1.42,0,0,1,1.44-1.51,1.51,1.51,0,1,1-1.44,1.51Z" transform="translate(-584 -271)"/>
    <path d="M1113,451.41h-4.92v-1.78h12v1.78h-4.94v14.4H1113Z" transform="translate(-584 -271)"/>
    <path d="M1121.65,448.77h2.12V456h0a4,4,0,0,1,1.52-1.49,4.31,4.31,0,0,1,2.16-.6c1.56,0,4,1,4,5v6.91h-2.11v-6.67c0-1.88-.7-3.46-2.69-3.46a3,3,0,0,0-2.83,2.11,2.57,2.57,0,0,0-.14,1v7h-2.12Z" transform="translate(-584 -271)"/>
    <path d="M1136.15,460.39a3.72,3.72,0,0,0,4,4,7.72,7.72,0,0,0,3.22-.6l.36,1.51a9.33,9.33,0,0,1-3.86.72c-3.58,0-5.72-2.35-5.72-5.86s2.07-6.26,5.45-6.26c3.79,0,4.8,3.33,4.8,5.47a9.22,9.22,0,0,1-.07,1Zm6.19-1.52c0-1.34-.55-3.43-2.93-3.43-2.13,0-3.07,2-3.24,3.43Z" transform="translate(-584 -271)"/>
    <path d="M1152.08,458c0-1.48,0-2.68-.09-3.79h1.9l.09,2h0a4.57,4.57,0,0,1,4.13-2.25c2.81,0,4.92,2.37,4.92,5.9,0,4.18-2.55,6.24-5.28,6.24a4.08,4.08,0,0,1-3.58-1.82h0v6.31h-2.09Zm2.09,3.1a4.72,4.72,0,0,0,.1.87,3.26,3.26,0,0,0,3.17,2.47c2.23,0,3.53-1.83,3.53-4.49,0-2.33-1.23-4.32-3.46-4.32a3.37,3.37,0,0,0-3.19,2.62,3.44,3.44,0,0,0-.15.86Z" transform="translate(-584 -271)"/>
    <path d="M1165.74,457.82c0-1.37,0-2.55-.1-3.63h1.85l.07,2.28h.1a3.48,3.48,0,0,1,3.22-2.54,2.2,2.2,0,0,1,.6.07v2a3.14,3.14,0,0,0-.72-.07,3,3,0,0,0-2.84,2.71,7.12,7.12,0,0,0-.09,1v6.19h-2.09Z" transform="translate(-584 -271)"/>
    <path d="M1174.53,460.39a3.72,3.72,0,0,0,4,4,7.79,7.79,0,0,0,3.22-.6l.36,1.51a9.39,9.39,0,0,1-3.87.72c-3.58,0-5.71-2.35-5.71-5.86s2.06-6.26,5.45-6.26c3.79,0,4.8,3.33,4.8,5.47a9.22,9.22,0,0,1-.07,1Zm6.19-1.52c0-1.34-.55-3.43-2.93-3.43-2.14,0-3.07,2-3.24,3.43Z" transform="translate(-584 -271)"/>
    <path d="M1186.19,454.19l2.28,6.53a28.64,28.64,0,0,1,.93,3h.08c.26-1,.6-1.92,1-3l2.26-6.53h2.2l-4.56,11.62h-2l-4.42-11.62Z" transform="translate(-584 -271)"/>
    <path d="M1199.27,450.93a1.31,1.31,0,0,1-2.62,0,1.28,1.28,0,0,1,1.32-1.32A1.25,1.25,0,0,1,1199.27,450.93Zm-2.35,14.88V454.19H1199v11.62Z" transform="translate(-584 -271)"/>
    <path d="M1213,459.91c0,4.29-3,6.16-5.78,6.16-3.14,0-5.57-2.3-5.57-6,0-3.89,2.55-6.17,5.76-6.17S1213,456.35,1213,459.91Zm-9.21.11c0,2.55,1.46,4.47,3.53,4.47s3.52-1.9,3.52-4.51c0-2-1-4.47-3.48-4.47S1203.83,457.82,1203.83,460Z" transform="translate(-584 -271)"/>
    <path d="M1225.43,462.64c0,1.2,0,2.26.1,3.17h-1.88l-.12-1.9h0a4.38,4.38,0,0,1-3.85,2.16c-1.82,0-4-1-4-5.08v-6.8h2.11v6.43c0,2.21.67,3.7,2.59,3.7a3,3,0,0,0,2.78-1.92,2.85,2.85,0,0,0,.2-1.08v-7.13h2.11Z" transform="translate(-584 -271)"/>
    <path d="M1228.64,463.65a5.55,5.55,0,0,0,2.79.84c1.53,0,2.25-.77,2.25-1.73s-.6-1.56-2.16-2.14c-2.08-.74-3.07-1.89-3.07-3.28,0-1.88,1.51-3.41,4-3.41a5.74,5.74,0,0,1,2.86.72l-.53,1.53a4.63,4.63,0,0,0-2.38-.67c-1.25,0-1.94.72-1.94,1.59s.69,1.39,2.21,2c2,.77,3,1.78,3,3.51,0,2-1.58,3.48-4.34,3.48a6.6,6.6,0,0,1-3.26-.79Z" transform="translate(-584 -271)"/>
    <path d="M1243.52,457.34c0-1.2,0-2.19-.09-3.15h1.85l.09,1.87h.07a4,4,0,0,1,3.65-2.13,3.43,3.43,0,0,1,3.29,2.33h0a4.78,4.78,0,0,1,1.29-1.52,4,4,0,0,1,2.57-.81c1.54,0,3.82,1,3.82,5v6.84H1258v-6.58c0-2.23-.81-3.57-2.52-3.57a2.72,2.72,0,0,0-2.49,1.92,3.3,3.3,0,0,0-.17,1.05v7.18h-2.06v-7c0-1.85-.82-3.19-2.43-3.19a3.15,3.15,0,0,0-2.78,3.14v7h-2.07Z" transform="translate(-584 -271)"/>
    <path d="M1270,465.81l-.17-1.46h-.07a4.32,4.32,0,0,1-3.55,1.72,3.3,3.3,0,0,1-3.55-3.33c0-2.81,2.49-4.35,7-4.32v-.24a2.39,2.39,0,0,0-2.64-2.69,5.74,5.74,0,0,0-3,.86l-.48-1.39a7.23,7.23,0,0,1,3.81-1c3.56,0,4.42,2.42,4.42,4.75V463a16.79,16.79,0,0,0,.19,2.78Zm-.31-5.93c-2.3-.05-4.92.36-4.92,2.62a1.86,1.86,0,0,0,2,2,2.9,2.9,0,0,0,2.81-1.94,2.31,2.31,0,0,0,.12-.67Z" transform="translate(-584 -271)"/>
    <path d="M1276.09,454.19l1.66,2.5c.43.65.79,1.25,1.17,1.89h.08c.38-.69.76-1.29,1.15-1.92l1.63-2.47h2.28l-4,5.62,4.08,6h-2.4l-1.7-2.62c-.46-.67-.84-1.32-1.25-2h0c-.38.69-.79,1.32-1.22,2l-1.68,2.62h-2.33l4.13-5.93-3.94-5.69Z" transform="translate(-584 -271)"/>
    <path d="M1295.89,449.15a15.83,15.83,0,0,0-3,9.82,16.19,16.19,0,0,0,3,9.74h-1.65a15.45,15.45,0,0,1-3.15-9.74,15.84,15.84,0,0,1,3.15-9.82Z" transform="translate(-584 -271)"/>
    <path d="M1298.94,454.19l2.28,6.53c.38,1.06.7,2,.94,3h.07c.26-1,.6-1.92,1-3l2.26-6.53h2.21l-4.56,11.62h-2l-4.42-11.62Z" transform="translate(-584 -271)"/>
    <path d="M1316,465.81l-.17-1.46h-.07a4.31,4.31,0,0,1-3.55,1.72,3.3,3.3,0,0,1-3.55-3.33c0-2.81,2.49-4.35,7-4.32v-.24a2.39,2.39,0,0,0-2.64-2.69,5.74,5.74,0,0,0-3,.86l-.48-1.39a7.23,7.23,0,0,1,3.81-1c3.56,0,4.42,2.42,4.42,4.75V463a16.79,16.79,0,0,0,.19,2.78Zm-.31-5.93c-2.3-.05-4.92.36-4.92,2.62a1.86,1.86,0,0,0,2,2,2.88,2.88,0,0,0,2.81-1.94,2.31,2.31,0,0,0,.12-.67Z" transform="translate(-584 -271)"/>
    <path d="M1321.14,448.77h2.11v17h-2.11Z" transform="translate(-584 -271)"/>
    <path d="M1336.52,462.64c0,1.2,0,2.26.1,3.17h-1.87l-.12-1.9h-.05a4.37,4.37,0,0,1-3.84,2.16c-1.83,0-4-1-4-5.08v-6.8h2.11v6.43c0,2.21.67,3.7,2.59,3.7a3,3,0,0,0,3-3v-7.13h2.11Z" transform="translate(-584 -271)"/>
    <path d="M1341.2,460.39a3.73,3.73,0,0,0,4,4,7.7,7.7,0,0,0,3.21-.6l.36,1.51a9.3,9.3,0,0,1-3.86.72c-3.58,0-5.71-2.35-5.71-5.86s2.06-6.26,5.44-6.26c3.8,0,4.81,3.33,4.81,5.47a6.86,6.86,0,0,1-.08,1Zm6.2-1.52c0-1.34-.56-3.43-2.93-3.43-2.14,0-3.08,2-3.24,3.43Z" transform="translate(-584 -271)"/>
    <path d="M1363.57,465.81l-.17-1.46h-.07a4.33,4.33,0,0,1-3.55,1.72,3.3,3.3,0,0,1-3.55-3.33c0-2.81,2.49-4.35,7-4.32v-.24a2.39,2.39,0,0,0-2.64-2.69,5.74,5.74,0,0,0-3,.86l-.48-1.39a7.23,7.23,0,0,1,3.81-1c3.55,0,4.42,2.42,4.42,4.75V463a16.79,16.79,0,0,0,.19,2.78Zm-.31-5.93c-2.31-.05-4.92.36-4.92,2.62a1.86,1.86,0,0,0,2,2,2.9,2.9,0,0,0,2.81-1.94,2.31,2.31,0,0,0,.12-.67Z" transform="translate(-584 -271)"/>
    <path d="M1371.15,450.86v3.33h3v1.61h-3v6.27c0,1.44.41,2.25,1.59,2.25a4.78,4.78,0,0,0,1.22-.14l.1,1.58a5.14,5.14,0,0,1-1.87.29,2.9,2.9,0,0,1-2.28-.89,4.28,4.28,0,0,1-.82-3V455.8h-1.8v-1.61h1.8v-2.78Z" transform="translate(-584 -271)"/>
    <path d="M1389.92,465.38a7.73,7.73,0,0,1-3.34.67c-3.5,0-5.78-2.38-5.78-5.93A5.9,5.9,0,0,1,1387,454a7,7,0,0,1,2.93.6l-.48,1.63a5,5,0,0,0-2.45-.55c-2.66,0-4.1,2-4.1,4.39,0,2.69,1.73,4.35,4,4.35a5.9,5.9,0,0,0,2.59-.58Z" transform="translate(-584 -271)"/>
    <path d="M1393.43,460.39a3.72,3.72,0,0,0,4,4,7.79,7.79,0,0,0,3.22-.6l.36,1.51a9.39,9.39,0,0,1-3.87.72c-3.58,0-5.71-2.35-5.71-5.86s2.06-6.26,5.45-6.26c3.79,0,4.8,3.33,4.8,5.47a9.22,9.22,0,0,1-.07,1Zm6.19-1.52c0-1.34-.55-3.43-2.93-3.43-2.14,0-3.07,2-3.24,3.43Z" transform="translate(-584 -271)"/>
    <path d="M1404.27,448.77h2.12v17h-2.12Z" transform="translate(-584 -271)"/>
    <path d="M1409.94,448.77h2.11v17h-2.11Z" transform="translate(-584 -271)"/>
    <path d="M1415.82,468.5V449.37h4.39v1.32h-2.76v16.49h2.76v1.32Z" transform="translate(-584 -271)"/>
    <path d="M1424.77,450.93a1.31,1.31,0,0,1-2.62,0,1.28,1.28,0,0,1,1.32-1.32A1.25,1.25,0,0,1,1424.77,450.93Zm-2.35,14.88V454.19h2.11v11.62Z" transform="translate(-584 -271)"/>
    <path d="M1432.93,458.54v1.56H1427v-1.56Z" transform="translate(-584 -271)"/>
    <path d="M1439.31,452.18h0l-2.71,1.46-.41-1.61,3.41-1.82h1.8v15.6h-2Z" transform="translate(-584 -271)"/>
    <path d="M1450.81,449.34V468.5h-4.39v-1.32h2.76V450.66h-2.76v-1.32Z" transform="translate(-584 -271)"/>
    <path d="M1454.74,468.5V449.37h4.4v1.32h-2.76v16.49h2.76v1.32Z" transform="translate(-584 -271)"/>
    <path d="M1459.86,469.17a3.4,3.4,0,0,0,2.3-.89c.58-.67.79-1.58.79-4.37v-9.72h2.11v10.54c0,2.26-.36,3.72-1.39,4.78a5.38,5.38,0,0,1-3.6,1.32Zm5.44-18.24a1.24,1.24,0,0,1-1.32,1.29,1.26,1.26,0,0,1-1.29-1.29,1.29,1.29,0,0,1,1.34-1.32A1.24,1.24,0,0,1,1465.3,450.93Z" transform="translate(-584 -271)"/>
    <path d="M1471.62,449.34V468.5h-4.4v-1.32H1470V450.66h-2.76v-1.32Z" transform="translate(-584 -271)"/>
  </g>
  <g>
    <path d="M1087.84,573.81v-1.3l1.65-1.6c4-3.8,5.79-5.81,5.81-8.17a2.78,2.78,0,0,0-3.09-3,5.33,5.33,0,0,0-3.32,1.32l-.67-1.49a6.87,6.87,0,0,1,4.42-1.59,4.4,4.4,0,0,1,4.78,4.54c0,2.88-2.09,5.21-5.38,8.38l-1.25,1.15v0h7v1.75Z" transform="translate(-584 -271)"/>
    <path d="M1100.32,572.56a1.42,1.42,0,0,1,1.44-1.51,1.51,1.51,0,1,1-1.44,1.51Z" transform="translate(-584 -271)"/>
    <path d="M1113.64,573.81l-5.28-16.18h2.25l2.52,8c.7,2.19,1.3,4.15,1.73,6h.05c.46-1.87,1.13-3.91,1.85-6l2.73-8h2.24l-5.79,16.18Z" transform="translate(-584 -271)"/>
    <path d="M1129.05,573.81l-.17-1.46h-.07a4.34,4.34,0,0,1-3.56,1.72,3.3,3.3,0,0,1-3.55-3.33c0-2.81,2.5-4.35,7-4.32v-.24a2.4,2.4,0,0,0-2.64-2.69,5.8,5.8,0,0,0-3,.86l-.48-1.39a7.24,7.24,0,0,1,3.82-1c3.55,0,4.41,2.42,4.41,4.75V571a15.71,15.71,0,0,0,.2,2.78Zm-.32-5.93c-2.3,0-4.92.36-4.92,2.62a1.87,1.87,0,0,0,2,2,2.88,2.88,0,0,0,2.8-1.94,2,2,0,0,0,.12-.67Z" transform="translate(-584 -271)"/>
    <path d="M1134.18,556.77h2.11v17h-2.11Z" transform="translate(-584 -271)"/>
    <path d="M1149.57,570.64c0,1.2,0,2.26.09,3.17h-1.87l-.12-1.9h-.05a4.35,4.35,0,0,1-3.84,2.16c-1.82,0-4-1-4-5.08v-6.8h2.11v6.43c0,2.21.68,3.7,2.6,3.7a3,3,0,0,0,3-3v-7.13h2.12Z" transform="translate(-584 -271)"/>
    <path d="M1154.25,568.38a3.72,3.72,0,0,0,4,4,7.79,7.79,0,0,0,3.22-.6l.36,1.51a9.39,9.39,0,0,1-3.87.72c-3.58,0-5.71-2.35-5.71-5.86s2.06-6.26,5.45-6.26c3.79,0,4.8,3.33,4.8,5.47a8.79,8.79,0,0,1-.07,1Zm6.19-1.51c0-1.34-.56-3.43-2.93-3.43-2.14,0-3.07,2-3.24,3.43Z" transform="translate(-584 -271)"/>
    <path d="M1180.69,567.91c0,4.29-3,6.16-5.78,6.16-3.15,0-5.57-2.3-5.57-6,0-3.89,2.54-6.17,5.76-6.17S1180.69,564.35,1180.69,567.91Zm-9.21.12c0,2.54,1.46,4.46,3.52,4.46s3.53-1.9,3.53-4.51c0-2-1-4.47-3.48-4.47S1171.48,565.82,1171.48,568Z" transform="translate(-584 -271)"/>
    <path d="M1183.57,573.81v-10h-1.63v-1.61h1.63v-.55a5.47,5.47,0,0,1,1.35-4.06,4.06,4.06,0,0,1,2.83-1.08,4.87,4.87,0,0,1,1.8.34l-.29,1.63a3.2,3.2,0,0,0-1.34-.26c-1.8,0-2.26,1.58-2.26,3.36v.62h2.81v1.61h-2.81v10Z" transform="translate(-584 -271)"/>
    <path d="M1203.73,573.38a7.72,7.72,0,0,1-3.33.67c-3.51,0-5.79-2.38-5.79-5.93a5.9,5.9,0,0,1,6.24-6.17,7,7,0,0,1,2.93.6l-.48,1.63a5,5,0,0,0-2.45-.55c-2.66,0-4.1,2-4.1,4.4,0,2.68,1.73,4.34,4,4.34a5.9,5.9,0,0,0,2.59-.58Z" transform="translate(-584 -271)"/>
    <path d="M1215.92,570.64c0,1.2,0,2.26.1,3.17h-1.87l-.12-1.9h0a4.35,4.35,0,0,1-3.84,2.16c-1.82,0-4-1-4-5.08v-6.8h2.11v6.43c0,2.21.68,3.7,2.6,3.7a3,3,0,0,0,3-3v-7.13h2.11Z" transform="translate(-584 -271)"/>
    <path d="M1219.43,565.82c0-1.37,0-2.55-.1-3.63h1.85l.07,2.28h.1a3.48,3.48,0,0,1,3.21-2.54,2.2,2.2,0,0,1,.6.07v2a3.65,3.65,0,0,0-.72-.07,3,3,0,0,0-2.83,2.71,5.86,5.86,0,0,0-.09,1v6.19h-2.09Z" transform="translate(-584 -271)"/>
    <path d="M1227.37,565.82c0-1.37,0-2.55-.09-3.63h1.84l.08,2.28h.09a3.48,3.48,0,0,1,3.22-2.54,2.2,2.2,0,0,1,.6.07v2a3.74,3.74,0,0,0-.72-.07,3,3,0,0,0-2.83,2.71,5.81,5.81,0,0,0-.1,1v6.19h-2.09Z" transform="translate(-584 -271)"/>
    <path d="M1236.16,568.38a3.72,3.72,0,0,0,4,4,7.79,7.79,0,0,0,3.22-.6l.36,1.51a9.39,9.39,0,0,1-3.87.72c-3.57,0-5.71-2.35-5.71-5.86s2.06-6.26,5.45-6.26c3.79,0,4.8,3.33,4.8,5.47a8.79,8.79,0,0,1-.07,1Zm6.19-1.51c0-1.34-.55-3.43-2.93-3.43-2.14,0-3.07,2-3.24,3.43Z" transform="translate(-584 -271)"/>
    <path d="M1247,565.34c0-1.2,0-2.19-.09-3.15h1.87l.12,1.92h0a4.27,4.27,0,0,1,3.84-2.18c1.61,0,4.1,1,4.1,4.94v6.94h-2.11v-6.7c0-1.87-.7-3.43-2.69-3.43a3,3,0,0,0-2.83,2.16,3,3,0,0,0-.14,1v7H1247Z" transform="translate(-584 -271)"/>
    <path d="M1262.77,558.86v3.33h3v1.61h-3v6.27c0,1.44.41,2.25,1.59,2.25a4.78,4.78,0,0,0,1.22-.14l.1,1.58a5.16,5.16,0,0,1-1.88.29,2.93,2.93,0,0,1-2.28-.89,4.28,4.28,0,0,1-.81-3V563.8h-1.8v-1.61h1.8v-2.78Z" transform="translate(-584 -271)"/>
    <path d="M1275.61,558.93a1.31,1.31,0,0,1-2.61,0,1.28,1.28,0,0,1,1.32-1.32A1.25,1.25,0,0,1,1275.61,558.93Zm-2.35,14.88V562.19h2.11v11.62Z" transform="translate(-584 -271)"/>
    <path d="M1281.42,558.86v3.33h3v1.61h-3v6.27c0,1.44.41,2.25,1.58,2.25a4.87,4.87,0,0,0,1.23-.14l.09,1.58a5.06,5.06,0,0,1-1.87.29,2.93,2.93,0,0,1-2.28-.89,4.28,4.28,0,0,1-.81-3V563.8h-1.81v-1.61h1.81v-2.78Z" transform="translate(-584 -271)"/>
    <path d="M1287.85,568.38a3.73,3.73,0,0,0,4,4,7.7,7.7,0,0,0,3.21-.6l.36,1.51a9.3,9.3,0,0,1-3.86.72c-3.58,0-5.72-2.35-5.72-5.86s2.07-6.26,5.45-6.26c3.8,0,4.8,3.33,4.8,5.47a6.87,6.87,0,0,1-.07,1Zm6.19-1.51c0-1.34-.55-3.43-2.92-3.43-2.14,0-3.08,2-3.24,3.43Z" transform="translate(-584 -271)"/>
    <path d="M1298.7,565.34c0-1.2,0-2.19-.1-3.15h1.85l.1,1.87h.07a4,4,0,0,1,3.65-2.13,3.45,3.45,0,0,1,3.29,2.33h0a4.81,4.81,0,0,1,1.3-1.52,4,4,0,0,1,2.57-.81c1.53,0,3.81,1,3.81,5v6.84h-2.06v-6.58c0-2.23-.82-3.57-2.52-3.57a2.73,2.73,0,0,0-2.5,1.92,3.68,3.68,0,0,0-.16,1v7.18H1306v-7c0-1.85-.81-3.19-2.42-3.19a3.15,3.15,0,0,0-2.79,3.14v7h-2.06Z" transform="translate(-584 -271)"/>
    <path d="M1330,561v5.64h5.42v1.44H1330v5.69h-1.54v-5.69H1323v-1.44h5.42V561Z" transform="translate(-584 -271)"/>
    <path d="M1344,562.19l2.28,6.53c.38,1.06.7,2,.94,3h.07c.26-1,.6-1.92,1-3l2.26-6.53h2.21l-4.56,11.62h-2l-4.42-11.62Z" transform="translate(-584 -271)"/>
    <path d="M1361.07,573.81l-.16-1.46h-.08a4.31,4.31,0,0,1-3.55,1.72,3.3,3.3,0,0,1-3.55-3.33c0-2.81,2.5-4.35,7-4.32v-.24a2.39,2.39,0,0,0-2.64-2.69,5.76,5.76,0,0,0-3,.86l-.48-1.39a7.24,7.24,0,0,1,3.82-1c3.55,0,4.41,2.42,4.41,4.75V571a16.79,16.79,0,0,0,.19,2.78Zm-.31-5.93c-2.3,0-4.92.36-4.92,2.62a1.86,1.86,0,0,0,2,2,2.88,2.88,0,0,0,2.81-1.94,2.31,2.31,0,0,0,.12-.67Z" transform="translate(-584 -271)"/>
    <path d="M1366.21,556.77h2.11v17h-2.11Z" transform="translate(-584 -271)"/>
    <path d="M1381.59,570.64c0,1.2,0,2.26.1,3.17h-1.87l-.12-1.9h0a4.37,4.37,0,0,1-3.84,2.16c-1.82,0-4-1-4-5.08v-6.8h2.11v6.43c0,2.21.68,3.7,2.6,3.7a3,3,0,0,0,3-3v-7.13h2.11Z" transform="translate(-584 -271)"/>
    <path d="M1386.27,568.38a3.73,3.73,0,0,0,4,4,7.7,7.7,0,0,0,3.21-.6l.36,1.51a9.3,9.3,0,0,1-3.86.72c-3.58,0-5.71-2.35-5.71-5.86s2.06-6.26,5.45-6.26c3.79,0,4.8,3.33,4.8,5.47a6.57,6.57,0,0,1-.08,1Zm6.2-1.51c0-1.34-.56-3.43-2.93-3.43-2.14,0-3.08,2-3.24,3.43Z" transform="translate(-584 -271)"/>
    <path d="M1412.72,567.91c0,4.29-3,6.16-5.78,6.16-3.15,0-5.57-2.3-5.57-6,0-3.89,2.54-6.17,5.76-6.17S1412.72,564.35,1412.72,567.91Zm-9.22.12c0,2.54,1.47,4.46,3.53,4.46s3.53-1.9,3.53-4.51c0-2-1-4.47-3.48-4.47S1403.5,565.82,1403.5,568Z" transform="translate(-584 -271)"/>
    <path d="M1415.6,573.81v-10H1414v-1.61h1.63v-.55a5.47,5.47,0,0,1,1.35-4.06,4.06,4.06,0,0,1,2.83-1.08,4.87,4.87,0,0,1,1.8.34l-.29,1.63a3.23,3.23,0,0,0-1.34-.26c-1.8,0-2.26,1.58-2.26,3.36v.62h2.81v1.61h-2.81v10Z" transform="translate(-584 -271)"/>
    <path d="M1430,558.86v3.33h3v1.61h-3v6.27c0,1.44.41,2.25,1.59,2.25a4.78,4.78,0,0,0,1.22-.14l.1,1.58a5.14,5.14,0,0,1-1.87.29,2.9,2.9,0,0,1-2.28-.89,4.28,4.28,0,0,1-.82-3V563.8h-1.8v-1.61h1.8v-2.78Z" transform="translate(-584 -271)"/>
    <path d="M1435.42,556.77h2.12V564h0a4,4,0,0,1,1.52-1.49,4.31,4.31,0,0,1,2.16-.6c1.56,0,4,1,4,5v6.91h-2.11v-6.67c0-1.88-.7-3.46-2.69-3.46a3,3,0,0,0-2.83,2.11,2.57,2.57,0,0,0-.14,1v7h-2.12Z" transform="translate(-584 -271)"/>
    <path d="M1449.92,568.38a3.72,3.72,0,0,0,4,4,7.72,7.72,0,0,0,3.22-.6l.36,1.51a9.33,9.33,0,0,1-3.86.72c-3.58,0-5.72-2.35-5.72-5.86s2.07-6.26,5.45-6.26c3.8,0,4.8,3.33,4.8,5.47a6.87,6.87,0,0,1-.07,1Zm6.19-1.51c0-1.34-.55-3.43-2.93-3.43-2.13,0-3.07,2-3.24,3.43Z" transform="translate(-584 -271)"/>
    <path d="M1465.86,565.82c0-1.37,0-2.55-.1-3.63h1.85l.07,2.28h.1a3.47,3.47,0,0,1,3.21-2.54,2.2,2.2,0,0,1,.6.07v2a3.65,3.65,0,0,0-.72-.07,3,3,0,0,0-2.83,2.71,5.81,5.81,0,0,0-.1,1v6.19h-2.08Z" transform="translate(-584 -271)"/>
    <path d="M1474.64,568.38a3.72,3.72,0,0,0,4,4,7.72,7.72,0,0,0,3.22-.6l.36,1.51a9.33,9.33,0,0,1-3.86.72c-3.58,0-5.72-2.35-5.72-5.86s2.07-6.26,5.45-6.26c3.79,0,4.8,3.33,4.8,5.47a8.79,8.79,0,0,1-.07,1Zm6.19-1.51c0-1.34-.55-3.43-2.93-3.43-2.13,0-3.07,2-3.24,3.43Z" transform="translate(-584 -271)"/>
    <path d="M1485.49,565.34c0-1.2,0-2.19-.1-3.15h1.85l.1,1.87h.07a4,4,0,0,1,3.65-2.13,3.42,3.42,0,0,1,3.28,2.33h.05a4.81,4.81,0,0,1,1.3-1.52,4,4,0,0,1,2.57-.81c1.53,0,3.81,1,3.81,5v6.84H1500v-6.58c0-2.23-.82-3.57-2.52-3.57a2.73,2.73,0,0,0-2.5,1.92,3.66,3.66,0,0,0-.17,1v7.18h-2.06v-7c0-1.85-.82-3.19-2.42-3.19a3.15,3.15,0,0,0-2.79,3.14v7h-2.06Z" transform="translate(-584 -271)"/>
    <path d="M1511.94,573.81l-.17-1.46h-.07a4.34,4.34,0,0,1-3.56,1.72,3.3,3.3,0,0,1-3.55-3.33c0-2.81,2.5-4.35,7-4.32v-.24a2.4,2.4,0,0,0-2.64-2.69,5.8,5.8,0,0,0-3,.86l-.48-1.39a7.24,7.24,0,0,1,3.82-1c3.55,0,4.41,2.42,4.41,4.75V571a15.71,15.71,0,0,0,.2,2.78Zm-.32-5.93c-2.3,0-4.92.36-4.92,2.62a1.87,1.87,0,0,0,2,2,2.88,2.88,0,0,0,2.8-1.94,2,2,0,0,0,.12-.67Z" transform="translate(-584 -271)"/>
    <path d="M1519.42,558.93a1.24,1.24,0,0,1-1.34,1.29,1.25,1.25,0,0,1-1.27-1.29,1.28,1.28,0,0,1,1.32-1.32A1.25,1.25,0,0,1,1519.42,558.93Zm-2.35,14.88V562.19h2.11v11.62Z" transform="translate(-584 -271)"/>
    <path d="M1522.69,565.34c0-1.2,0-2.19-.1-3.15h1.87l.12,1.92h.05a4.28,4.28,0,0,1,3.84-2.18c1.61,0,4.11,1,4.11,4.94v6.94h-2.12v-6.7c0-1.87-.69-3.43-2.68-3.43a3,3,0,0,0-2.84,2.16,3.24,3.24,0,0,0-.14,1v7h-2.11Z" transform="translate(-584 -271)"/>
    <path d="M1538.36,558.93a1.31,1.31,0,0,1-2.62,0,1.28,1.28,0,0,1,1.32-1.32A1.25,1.25,0,0,1,1538.36,558.93ZM1536,573.81V562.19h2.11v11.62Z" transform="translate(-584 -271)"/>
    <path d="M1541.62,565.34c0-1.2,0-2.19-.09-3.15h1.87l.12,1.92h0a4.27,4.27,0,0,1,3.84-2.18c1.61,0,4.1,1,4.1,4.94v6.94h-2.11v-6.7c0-1.87-.7-3.43-2.69-3.43a3,3,0,0,0-2.83,2.16,3,3,0,0,0-.14,1v7h-2.12Z" transform="translate(-584 -271)"/>
    <path d="M1565,562.19c0,.84-.09,1.78-.09,3.19v6.75c0,2.66-.53,4.3-1.66,5.3a6.15,6.15,0,0,1-4.23,1.4,7.54,7.54,0,0,1-3.86-1l.53-1.61a6.56,6.56,0,0,0,3.41.91c2.16,0,3.74-1.13,3.74-4.06v-1.29h0a4.14,4.14,0,0,1-3.69,1.94c-2.88,0-5-2.45-5-5.66,0-3.94,2.57-6.17,5.23-6.17a3.85,3.85,0,0,1,3.63,2h0l.09-1.76Zm-2.18,4.59a3.2,3.2,0,0,0-.12-1,3.05,3.05,0,0,0-3-2.24c-2,0-3.46,1.71-3.46,4.4,0,2.28,1.15,4.17,3.43,4.17a3.08,3.08,0,0,0,2.93-2.16,3.67,3.67,0,0,0,.17-1.12Z" transform="translate(-584 -271)"/>
    <path d="M1573.16,571.65a5.51,5.51,0,0,0,2.78.84c1.54,0,2.26-.77,2.26-1.73s-.6-1.56-2.16-2.14c-2.09-.74-3.07-1.89-3.07-3.28,0-1.88,1.51-3.41,4-3.41a5.74,5.74,0,0,1,2.86.72l-.53,1.53a4.55,4.55,0,0,0-2.37-.67c-1.25,0-2,.72-2,1.59s.7,1.39,2.21,2c2,.77,3,1.78,3,3.51,0,2-1.58,3.48-4.35,3.48a6.63,6.63,0,0,1-3.26-.79Z" transform="translate(-584 -271)"/>
    <path d="M1583,566c0-1.48,0-2.68-.1-3.79h1.9l.1,2h0a4.59,4.59,0,0,1,4.13-2.25c2.81,0,4.92,2.37,4.92,5.9,0,4.18-2.54,6.24-5.28,6.24a4.06,4.06,0,0,1-3.57-1.82h0v6.31H1583Zm2.09,3.1a5.81,5.81,0,0,0,.09.87,3.27,3.27,0,0,0,3.17,2.47c2.24,0,3.53-1.83,3.53-4.49,0-2.33-1.22-4.32-3.45-4.32a3.37,3.37,0,0,0-3.2,2.61,3.59,3.59,0,0,0-.14.87Z" transform="translate(-584 -271)"/>
    <path d="M1603,573.81l-.17-1.46h-.07a4.33,4.33,0,0,1-3.55,1.72,3.31,3.31,0,0,1-3.56-3.33c0-2.81,2.5-4.35,7-4.32v-.24a2.4,2.4,0,0,0-2.64-2.69,5.8,5.8,0,0,0-3,.86l-.48-1.39a7.27,7.27,0,0,1,3.82-1c3.55,0,4.42,2.42,4.42,4.75V571a15.77,15.77,0,0,0,.19,2.78Zm-.31-5.93c-2.31,0-4.92.36-4.92,2.62a1.86,1.86,0,0,0,2,2,2.9,2.9,0,0,0,2.81-1.94,2.31,2.31,0,0,0,.12-.67Z" transform="translate(-584 -271)"/>
    <path d="M1616.46,573.38a7.81,7.81,0,0,1-3.34.67c-3.51,0-5.79-2.38-5.79-5.93a5.9,5.9,0,0,1,6.24-6.17,7,7,0,0,1,2.93.6l-.48,1.63a5,5,0,0,0-2.45-.55c-2.66,0-4.1,2-4.1,4.4,0,2.68,1.73,4.34,4,4.34a5.86,5.86,0,0,0,2.59-.58Z" transform="translate(-584 -271)"/>
    <path d="M1620,568.38a3.72,3.72,0,0,0,4,4,7.75,7.75,0,0,0,3.22-.6l.36,1.51a9.39,9.39,0,0,1-3.87.72c-3.57,0-5.71-2.35-5.71-5.86s2.07-6.26,5.45-6.26c3.79,0,4.8,3.33,4.8,5.47a8.79,8.79,0,0,1-.07,1Zm6.19-1.51c0-1.34-.55-3.43-2.93-3.43-2.13,0-3.07,2-3.24,3.43Z" transform="translate(-584 -271)"/>
  </g>
  <g>
    <path d="M1392.79,686.38a7.77,7.77,0,0,1-3.34.67c-3.5,0-5.78-2.38-5.78-5.93a5.9,5.9,0,0,1,6.24-6.17,7,7,0,0,1,2.93.6l-.48,1.63a5,5,0,0,0-2.45-.55c-2.66,0-4.1,2-4.1,4.4,0,2.68,1.72,4.34,4,4.34a5.9,5.9,0,0,0,2.59-.58Z" transform="translate(-584 -271)"/>
    <path d="M1396.29,681.38a3.73,3.73,0,0,0,4,4,7.79,7.79,0,0,0,3.22-.6l.36,1.51a9.39,9.39,0,0,1-3.87.72c-3.58,0-5.71-2.35-5.71-5.86s2.06-6.26,5.45-6.26c3.79,0,4.8,3.33,4.8,5.47a8.79,8.79,0,0,1-.07,1Zm6.2-1.51c0-1.34-.56-3.43-2.93-3.43-2.14,0-3.07,2-3.24,3.43Z" transform="translate(-584 -271)"/>
    <path d="M1407.14,669.77h2.11v17h-2.11Z" transform="translate(-584 -271)"/>
    <path d="M1412.81,669.77h2.11v17h-2.11Z" transform="translate(-584 -271)"/>
    <path d="M1418.68,689.5V670.37h4.4v1.32h-2.76v16.49h2.76v1.32Z" transform="translate(-584 -271)"/>
    <path d="M1427.64,671.93a1.31,1.31,0,0,1-2.62,0,1.28,1.28,0,0,1,1.32-1.32A1.25,1.25,0,0,1,1427.64,671.93Zm-2.35,14.88V675.19h2.11v11.62Z" transform="translate(-584 -271)"/>
    <path d="M1435.8,679.54v1.56h-5.93v-1.56Z" transform="translate(-584 -271)"/>
    <path d="M1442.18,673.18h0l-2.71,1.46L1439,673l3.41-1.82h1.8v15.6h-2Z" transform="translate(-584 -271)"/>
    <path d="M1453.68,670.34V689.5h-4.4v-1.32H1452V671.66h-2.76v-1.32Z" transform="translate(-584 -271)"/>
    <path d="M1457.61,689.5V670.37H1462v1.32h-2.75v16.49H1462v1.32Z" transform="translate(-584 -271)"/>
    <path d="M1462.72,690.17a3.45,3.45,0,0,0,2.31-.89c.57-.67.79-1.58.79-4.37v-9.72h2.11v10.54c0,2.26-.36,3.72-1.39,4.78a5.39,5.39,0,0,1-3.6,1.32Zm5.45-18.24a1.24,1.24,0,0,1-1.32,1.29,1.26,1.26,0,0,1-1.29-1.29,1.29,1.29,0,0,1,1.34-1.32A1.24,1.24,0,0,1,1468.17,671.93Z" transform="translate(-584 -271)"/>
    <path d="M1476.29,679.54v1.56h-5.93v-1.56Z" transform="translate(-584 -271)"/>
    <path d="M1481.11,671.93a1.31,1.31,0,0,1-2.62,0,1.28,1.28,0,0,1,1.32-1.32A1.25,1.25,0,0,1,1481.11,671.93Zm-2.35,14.88V675.19h2.11v11.62Z" transform="translate(-584 -271)"/>
    <path d="M1486.92,671.86v3.33h3v1.61h-3v6.27c0,1.44.4,2.25,1.58,2.25a4.78,4.78,0,0,0,1.22-.14l.1,1.58a5.14,5.14,0,0,1-1.87.29,2.9,2.9,0,0,1-2.28-.89,4.28,4.28,0,0,1-.82-3V676.8h-1.8v-1.61h1.8v-2.78Z" transform="translate(-584 -271)"/>
    <path d="M1493.35,681.38a3.72,3.72,0,0,0,4,4,7.75,7.75,0,0,0,3.22-.6l.36,1.51a9.35,9.35,0,0,1-3.87.72c-3.57,0-5.71-2.35-5.71-5.86s2.07-6.26,5.45-6.26c3.79,0,4.8,3.33,4.8,5.47a8.79,8.79,0,0,1-.07,1Zm6.19-1.51c0-1.34-.55-3.43-2.93-3.43-2.13,0-3.07,2-3.24,3.43Z" transform="translate(-584 -271)"/>
    <path d="M1504.2,678.34c0-1.2,0-2.19-.1-3.15H1506l.09,1.87h.08a4,4,0,0,1,3.64-2.13,3.43,3.43,0,0,1,3.29,2.33h0a4.81,4.81,0,0,1,1.3-1.52,4,4,0,0,1,2.56-.81c1.54,0,3.82,1,3.82,5v6.84h-2.06v-6.58c0-2.23-.82-3.57-2.52-3.57a2.73,2.73,0,0,0-2.5,1.92,3.35,3.35,0,0,0-.17,1v7.18h-2.06v-7c0-1.85-.82-3.19-2.43-3.19a3.15,3.15,0,0,0-2.78,3.14v7h-2.06Z" transform="translate(-584 -271)"/>
    <path d="M1526.08,670.37a28,28,0,0,1-2.25,5.69l-1.35.16a33.2,33.2,0,0,0,1.42-5.64Z" transform="translate(-584 -271)"/>
    <path d="M1526.37,684.65a5.55,5.55,0,0,0,2.79.84c1.53,0,2.25-.77,2.25-1.73s-.6-1.56-2.16-2.14c-2.09-.74-3.07-1.89-3.07-3.28,0-1.88,1.51-3.41,4-3.41a5.67,5.67,0,0,1,2.85.72l-.52,1.53a4.63,4.63,0,0,0-2.38-.67c-1.25,0-1.94.72-1.94,1.59s.69,1.39,2.2,2c2,.77,3,1.78,3,3.51,0,2-1.58,3.48-4.34,3.48a6.67,6.67,0,0,1-3.27-.79Z" transform="translate(-584 -271)"/>
    <path d="M1542.09,675.19l1.54,5.91c.33,1.29.65,2.49.86,3.69h.07c.27-1.17.65-2.42,1-3.67l1.89-5.93h1.78l1.8,5.81c.43,1.39.77,2.62,1,3.79h.07a35.22,35.22,0,0,1,.89-3.76l1.66-5.84h2.08l-3.74,11.62h-1.92l-1.78-5.54c-.4-1.3-.74-2.45-1-3.82h0a32.56,32.56,0,0,1-1,3.84l-1.87,5.52h-1.92l-3.51-11.62Z" transform="translate(-584 -271)"/>
    <path d="M1559.85,681.38a3.73,3.73,0,0,0,4,4,7.7,7.7,0,0,0,3.21-.6l.36,1.51a9.3,9.3,0,0,1-3.86.72c-3.58,0-5.71-2.35-5.71-5.86s2.06-6.26,5.44-6.26c3.8,0,4.8,3.33,4.8,5.47a6.87,6.87,0,0,1-.07,1Zm6.19-1.51c0-1.34-.55-3.43-2.92-3.43-2.14,0-3.08,2-3.24,3.43Z" transform="translate(-584 -271)"/>
    <path d="M1573.05,671.93a1.31,1.31,0,0,1-2.61,0,1.28,1.28,0,0,1,1.32-1.32A1.25,1.25,0,0,1,1573.05,671.93Zm-2.35,14.88V675.19h2.11v11.62Z" transform="translate(-584 -271)"/>
    <path d="M1586.32,675.19c0,.84-.09,1.78-.09,3.19v6.75c0,2.66-.53,4.3-1.66,5.3a6.14,6.14,0,0,1-4.22,1.4,7.58,7.58,0,0,1-3.87-1l.53-1.61a6.56,6.56,0,0,0,3.41.91c2.16,0,3.74-1.13,3.74-4.06v-1.29h0a4.15,4.15,0,0,1-3.7,1.94c-2.88,0-5-2.45-5-5.66,0-3.94,2.57-6.17,5.24-6.17a3.84,3.84,0,0,1,3.62,2h.05l.1-1.76Zm-2.18,4.59a2.91,2.91,0,0,0-.12-1,3,3,0,0,0-3-2.24c-2,0-3.46,1.71-3.46,4.4,0,2.28,1.15,4.17,3.43,4.17A3.07,3.07,0,0,0,1584,683a3.67,3.67,0,0,0,.17-1.12Z" transform="translate(-584 -271)"/>
    <path d="M1589.73,669.77h2.11V677h.05a3.93,3.93,0,0,1,1.51-1.49,4.37,4.37,0,0,1,2.16-.6c1.56,0,4.06,1,4.06,5v6.91h-2.11v-6.67c0-1.88-.7-3.46-2.69-3.46a3,3,0,0,0-2.83,2.11,2.56,2.56,0,0,0-.15,1v7h-2.11Z" transform="translate(-584 -271)"/>
    <path d="M1605.5,671.86v3.33h3v1.61h-3v6.27c0,1.44.41,2.25,1.58,2.25a4.87,4.87,0,0,0,1.23-.14l.09,1.58a5.06,5.06,0,0,1-1.87.29,2.93,2.93,0,0,1-2.28-.89,4.28,4.28,0,0,1-.81-3V676.8h-1.81v-1.61h1.81v-2.78Z" transform="translate(-584 -271)"/>
    <path d="M1614,670.34V689.5h-4.4v-1.32h2.76V671.66h-2.76v-1.32Z" transform="translate(-584 -271)"/>
  </g>
  <g>
    <path d="M1282.32,508.25l2.28,6.53c.38,1.06.69,2,.93,3h.08c.26-1,.6-1.92,1-3l2.26-6.53h2.2l-4.56,11.62h-2l-4.42-11.62Z" transform="translate(-584 -271)"/>
    <path d="M1292.61,517.71a5.55,5.55,0,0,0,2.79.84c1.53,0,2.25-.77,2.25-1.73s-.6-1.56-2.16-2.14c-2.08-.74-3.07-1.89-3.07-3.28,0-1.88,1.51-3.41,4-3.41a5.74,5.74,0,0,1,2.86.72l-.53,1.53a4.63,4.63,0,0,0-2.38-.67c-1.25,0-1.94.72-1.94,1.59s.69,1.39,2.21,2c2,.77,3,1.78,3,3.51,0,2-1.58,3.48-4.34,3.48a6.6,6.6,0,0,1-3.26-.79Z" transform="translate(-584 -271)"/>
  </g>
  <rect x="0.5" y="0.5" width="1239" height="525" fill="none" stroke="#000" stroke-miterlimit="10"/>
</svg>
