<svg xmlns="http://www.w3.org/2000/svg" width="1146.23" height="906.12" viewBox="0 0 1146.23 906.12">
  <title>nyc_mapsAsset 3</title>
  <g id="Layer_2" data-name="Layer 2">
    <g id="Names">
      <g>
        <path d="M520,849.17C520,857.53,515,862,508.78,862c-6.41,0-10.91-5-10.91-12.31,0-7.7,4.79-12.74,11.27-12.74S520,842,520,849.17Zm-18.82.4c0,5.18,2.81,9.83,7.74,9.83s7.77-4.57,7.77-10.08c0-4.82-2.52-9.86-7.74-9.86S501.22,844.24,501.22,849.57Z" stroke="#000" stroke-miterlimit="10" stroke-width="2"/>
        <path d="M524,848.85c0-1.8,0-3.27-.15-4.72h2.81l.18,2.88h.07a6.42,6.42,0,0,1,5.76-3.27c2.41,0,6.16,1.44,6.16,7.41v10.41h-3.17v-10c0-2.8-1-5.14-4-5.14a4.49,4.49,0,0,0-4.25,3.24,4.6,4.6,0,0,0-.22,1.47v10.48H524Z" stroke="#000" stroke-miterlimit="10" stroke-width="2"/>
        <path d="M545.75,853.42c.07,4.29,2.81,6.05,6,6.05a11.53,11.53,0,0,0,4.82-.9l.54,2.27a14.19,14.19,0,0,1-5.8,1.08c-5.36,0-8.56-3.53-8.56-8.79s3.09-9.39,8.17-9.39c5.68,0,7.2,5,7.2,8.21a13.13,13.13,0,0,1-.11,1.47Zm9.29-2.27c0-2-.83-5.14-4.39-5.14-3.21,0-4.61,3-4.86,5.14Z" stroke="#000" stroke-miterlimit="10" stroke-width="2"/>
        <path d="M572.43,861.56l-6.16-24.26h3.31l2.88,12.27c.72,3,1.37,6,1.8,8.39h.07c.4-2.41,1.16-5.29,2-8.43l3.24-12.23h3.28l2.95,12.31c.68,2.88,1.33,5.76,1.69,8.31h.07c.51-2.66,1.19-5.36,2-8.39l3.2-12.23h3.2L589,861.56h-3.28l-3.06-12.64A73.07,73.07,0,0,1,581.1,841H581a74.66,74.66,0,0,1-1.87,7.92l-3.46,12.64Z" stroke="#000" stroke-miterlimit="10" stroke-width="2"/>
        <path d="M613.39,852.7c0,6.45-4.46,9.25-8.67,9.25-4.72,0-8.35-3.45-8.35-9,0-5.83,3.81-9.25,8.64-9.25C610,843.74,613.39,847.37,613.39,852.7Zm-13.82.18c0,3.82,2.2,6.7,5.29,6.7s5.29-2.85,5.29-6.77c0-2.95-1.47-6.7-5.22-6.7S599.57,849.57,599.57,852.88Z" stroke="#000" stroke-miterlimit="10" stroke-width="2"/>
        <path d="M617.39,849.57c0-2.05,0-3.82-.14-5.44H620l.11,3.42h.14a5.22,5.22,0,0,1,4.82-3.81,3.13,3.13,0,0,1,.9.11v3a4.9,4.9,0,0,0-1.08-.1c-2.23,0-3.81,1.69-4.24,4.06a8.22,8.22,0,0,0-.15,1.48v9.29h-3.13Z" stroke="#000" stroke-miterlimit="10" stroke-width="2"/>
        <path d="M629.31,836h3.16v25.56h-3.16Z" stroke="#000" stroke-miterlimit="10" stroke-width="2"/>
        <path d="M652.85,836v21.06c0,1.54,0,3.31.14,4.5h-2.84l-.15-3h-.07A6.43,6.43,0,0,1,644,862c-4.21,0-7.45-3.56-7.45-8.85,0-5.8,3.56-9.36,7.81-9.36a5.83,5.83,0,0,1,5.26,2.66h.07V836Zm-3.17,15.23a6.1,6.1,0,0,0-.14-1.34,4.67,4.67,0,0,0-4.58-3.67c-3.27,0-5.22,2.88-5.22,6.73,0,3.53,1.73,6.45,5.15,6.45a4.77,4.77,0,0,0,4.65-3.78,5.94,5.94,0,0,0,.14-1.37Z" stroke="#000" stroke-miterlimit="10" stroke-width="2"/>
        <path d="M669,840H661.6V837.3h18V840h-7.42v21.6H669Z" stroke="#000" stroke-miterlimit="10" stroke-width="2"/>
        <path d="M680.53,849.57c0-2.05,0-3.82-.14-5.44h2.77l.11,3.42h.14a5.22,5.22,0,0,1,4.83-3.81,3,3,0,0,1,.89.11v3a4.81,4.81,0,0,0-1.07-.1c-2.24,0-3.82,1.69-4.25,4.06a9.25,9.25,0,0,0-.15,1.48v9.29h-3.13Z" stroke="#000" stroke-miterlimit="10" stroke-width="2"/>
        <path d="M701.77,861.56l-.25-2.2h-.11a6.48,6.48,0,0,1-5.33,2.59,5,5,0,0,1-5.32-5c0-4.21,3.74-6.52,10.47-6.48v-.36c0-1.44-.39-4-4-4a8.66,8.66,0,0,0-4.53,1.29l-.72-2.08a10.78,10.78,0,0,1,5.72-1.55c5.33,0,6.62,3.63,6.62,7.13v6.51a25.23,25.23,0,0,0,.29,4.18Zm-.47-8.89c-3.45-.08-7.38.54-7.38,3.92a2.8,2.8,0,0,0,3,3,4.33,4.33,0,0,0,4.21-2.91,3.31,3.31,0,0,0,.18-1Z" stroke="#000" stroke-miterlimit="10" stroke-width="2"/>
        <path d="M724.52,836v21.06c0,1.54,0,3.31.15,4.5h-2.85l-.14-3h-.07a6.45,6.45,0,0,1-5.94,3.42c-4.21,0-7.45-3.56-7.45-8.85,0-5.8,3.56-9.36,7.81-9.36a5.82,5.82,0,0,1,5.25,2.66h.08V836Zm-3.16,15.23a5.56,5.56,0,0,0-.15-1.34,4.66,4.66,0,0,0-4.57-3.67c-3.28,0-5.22,2.88-5.22,6.73,0,3.53,1.73,6.45,5.15,6.45a4.77,4.77,0,0,0,4.64-3.78,5.43,5.43,0,0,0,.15-1.37Z" stroke="#000" stroke-miterlimit="10" stroke-width="2"/>
        <path d="M731.55,853.42c.07,4.29,2.8,6.05,6,6.05a11.46,11.46,0,0,0,4.82-.9l.54,2.27a14.13,14.13,0,0,1-5.79,1.08c-5.37,0-8.57-3.53-8.57-8.79s3.1-9.39,8.17-9.39c5.69,0,7.2,5,7.2,8.21a11.08,11.08,0,0,1-.11,1.47Zm9.28-2.27c0-2-.83-5.14-4.39-5.14-3.2,0-4.61,3-4.86,5.14Z" stroke="#000" stroke-miterlimit="10" stroke-width="2"/>
        <path d="M590.64,904a15.46,15.46,0,0,1-6.41,1.16c-6.84,0-12-4.32-12-12.28,0-7.59,5.14-12.74,12.67-12.74a13.06,13.06,0,0,1,5.76,1.08l-.76,2.56a11.34,11.34,0,0,0-4.89-1c-5.69,0-9.47,3.63-9.47,10,0,5.94,3.42,9.76,9.32,9.76a12.55,12.55,0,0,0,5.11-1Z" stroke="#000" stroke-miterlimit="10" stroke-width="2"/>
        <path d="M595.83,896.62c.07,4.29,2.8,6,6,6a11.46,11.46,0,0,0,4.82-.9l.54,2.27a14.13,14.13,0,0,1-5.79,1.08c-5.36,0-8.57-3.53-8.57-8.79s3.1-9.39,8.17-9.39c5.69,0,7.2,5,7.2,8.21a11.08,11.08,0,0,1-.11,1.47Zm9.28-2.27c0-2-.82-5.14-4.39-5.14-3.2,0-4.61,2.95-4.86,5.14Z" stroke="#000" stroke-miterlimit="10" stroke-width="2"/>
        <path d="M612.1,892.05c0-1.8,0-3.28-.15-4.72h2.81l.18,2.88H615a6.42,6.42,0,0,1,5.76-3.27c2.41,0,6.16,1.44,6.16,7.41v10.41h-3.17v-10c0-2.8-1-5.14-4-5.14a4.49,4.49,0,0,0-4.25,3.24,4.61,4.61,0,0,0-.21,1.47v10.48H612.1Z" stroke="#000" stroke-miterlimit="10" stroke-width="2"/>
        <path d="M635.75,882.33v5h4.54v2.42h-4.54v9.39c0,2.16.61,3.38,2.38,3.38a7,7,0,0,0,1.83-.21l.15,2.37a7.62,7.62,0,0,1-2.81.44,4.39,4.39,0,0,1-3.42-1.33c-.9-.94-1.23-2.49-1.23-4.54v-9.5H630v-2.42h2.7v-4.17Z" stroke="#000" stroke-miterlimit="10" stroke-width="2"/>
        <path d="M645.4,896.62c.07,4.29,2.81,6,6,6a11.55,11.55,0,0,0,4.83-.9l.54,2.27a14.23,14.23,0,0,1-5.8,1.08c-5.36,0-8.57-3.53-8.57-8.79s3.1-9.39,8.18-9.39c5.68,0,7.19,5,7.19,8.21a13.66,13.66,0,0,1-.1,1.47Zm9.28-2.27c0-2-.82-5.14-4.39-5.14-3.2,0-4.6,2.95-4.86,5.14Z" stroke="#000" stroke-miterlimit="10" stroke-width="2"/>
        <path d="M661.67,892.77c0-2,0-3.82-.14-5.44h2.77l.11,3.42h.14a5.23,5.23,0,0,1,4.82-3.81,3.52,3.52,0,0,1,.9.11v3a4.84,4.84,0,0,0-1.08-.1c-2.23,0-3.81,1.69-4.24,4.06a8.22,8.22,0,0,0-.15,1.48v9.29h-3.13Z" stroke="#000" stroke-miterlimit="10" stroke-width="2"/>
      </g>
      <g>
        <path d="M223.28,389.56V365.3h3.42l7.77,12.27a70,70,0,0,1,4.36,7.88l.07,0c-.29-3.24-.36-6.19-.36-10V365.3h3v24.26h-3.17l-7.7-12.31a79.38,79.38,0,0,1-4.54-8.1l-.1,0c.18,3.06.25,6,.25,10v10.37Z" stroke="#000" stroke-miterlimit="10" stroke-width="2"/>
        <path d="M252.11,389.56v-10.3l-7.67-14H248l3.42,6.69c.93,1.84,1.65,3.31,2.41,5h.07c.68-1.58,1.51-3.16,2.45-5l3.49-6.69h3.56l-8.13,13.93v10.33Z" stroke="#000" stroke-miterlimit="10" stroke-width="2"/>
        <path d="M269.32,365.3v14.36c0,5.43,2.41,7.74,5.65,7.74,3.6,0,5.9-2.38,5.9-7.74V365.3H284v14.14c0,7.45-3.92,10.51-9.18,10.51-5,0-8.71-2.84-8.71-10.36V365.3Z" stroke="#000" stroke-miterlimit="10" stroke-width="2"/>
        <path d="M303.88,364.58a23.69,23.69,0,0,0-4.54,14.72,24.21,24.21,0,0,0,4.54,14.61h-2.49a23.31,23.31,0,0,1-4.71-14.61,23.76,23.76,0,0,1,4.71-14.72Z" stroke="#000" stroke-miterlimit="10" stroke-width="2"/>
        <path d="M313.09,389.56l-6.15-24.26h3.31l2.88,12.27c.72,3,1.37,6.05,1.8,8.39H315c.4-2.41,1.15-5.29,2-8.43l3.24-12.23h3.28l2.95,12.31c.68,2.88,1.33,5.76,1.69,8.31h.07c.51-2.66,1.19-5.36,2-8.39l3.2-12.23h3.2l-6.87,24.26h-3.28l-3.06-12.64a73.07,73.07,0,0,1-1.58-7.92h-.07a77.52,77.52,0,0,1-1.88,7.92l-3.45,12.64Z" stroke="#000" stroke-miterlimit="10" stroke-width="2"/>
        <path d="M347.94,389.56l-.25-2.2h-.11a6.48,6.48,0,0,1-5.33,2.59,5,5,0,0,1-5.32-5c0-4.21,3.74-6.52,10.47-6.48v-.36c0-1.44-.39-4-4-4a8.66,8.66,0,0,0-4.53,1.29l-.72-2.08a10.75,10.75,0,0,1,5.72-1.55c5.33,0,6.62,3.63,6.62,7.13v6.51a24.19,24.19,0,0,0,.29,4.18Zm-.47-8.89c-3.45-.08-7.38.54-7.38,3.92a2.8,2.8,0,0,0,3,3,4.33,4.33,0,0,0,4.21-2.91,3.31,3.31,0,0,0,.18-1Z" stroke="#000" stroke-miterlimit="10" stroke-width="2"/>
        <path d="M355.21,386.32a8.36,8.36,0,0,0,4.18,1.26c2.3,0,3.38-1.16,3.38-2.59s-.9-2.34-3.24-3.21c-3.13-1.11-4.6-2.84-4.6-4.93,0-2.81,2.26-5.11,6-5.11a8.64,8.64,0,0,1,4.28,1.08l-.79,2.3a6.77,6.77,0,0,0-3.56-1c-1.88,0-2.92,1.08-2.92,2.38s1,2.09,3.31,2.95c3,1.15,4.57,2.67,4.57,5.26,0,3.06-2.37,5.22-6.51,5.22a10,10,0,0,1-4.9-1.19Z" stroke="#000" stroke-miterlimit="10" stroke-width="2"/>
        <path d="M369.9,364h3.17v10.87h.07a5.93,5.93,0,0,1,2.27-2.23,6.53,6.53,0,0,1,3.24-.9c2.34,0,6.08,1.44,6.08,7.45v10.37h-3.17v-10c0-2.81-1-5.18-4-5.18a4.54,4.54,0,0,0-4.24,3.16,3.87,3.87,0,0,0-.22,1.52v10.51H369.9Z" stroke="#000" stroke-miterlimit="10" stroke-width="2"/>
        <path d="M393.41,367.24a2,2,0,0,1-3.92,0,1.92,1.92,0,0,1,2-2A1.88,1.88,0,0,1,393.41,367.24Zm-3.53,22.32V372.13h3.17v17.43Z" stroke="#000" stroke-miterlimit="10" stroke-width="2"/>
        <path d="M398.31,376.85c0-1.8,0-3.28-.15-4.72H401l.18,2.88h.07a6.42,6.42,0,0,1,5.76-3.27c2.41,0,6.16,1.44,6.16,7.41v10.41H410V379.51c0-2.8-1.05-5.14-4-5.14a4.49,4.49,0,0,0-4.25,3.24,4.6,4.6,0,0,0-.22,1.47v10.48h-3.16Z" stroke="#000" stroke-miterlimit="10" stroke-width="2"/>
        <path d="M433.3,372.13c-.08,1.26-.15,2.67-.15,4.79V387c0,4-.79,6.44-2.48,7.95a9.21,9.21,0,0,1-6.34,2.09,11.17,11.17,0,0,1-5.79-1.44l.79-2.41a9.81,9.81,0,0,0,5.11,1.37c3.24,0,5.62-1.7,5.62-6.09v-1.94H430a6.21,6.21,0,0,1-5.54,2.91c-4.32,0-7.41-3.67-7.41-8.49,0-5.9,3.85-9.25,7.84-9.25a5.8,5.8,0,0,1,5.44,3h.07l.14-2.63ZM430,379a4.62,4.62,0,0,0-.18-1.44,4.56,4.56,0,0,0-4.43-3.35c-3,0-5.18,2.56-5.18,6.59,0,3.42,1.73,6.26,5.15,6.26a4.63,4.63,0,0,0,4.39-3.24,5.5,5.5,0,0,0,.25-1.69Z" stroke="#000" stroke-miterlimit="10" stroke-width="2"/>
        <path d="M442.22,367.13v5h4.54v2.42h-4.54v9.39c0,2.16.62,3.38,2.38,3.38a7.06,7.06,0,0,0,1.84-.21l.14,2.37a7.54,7.54,0,0,1-2.81.44,4.39,4.39,0,0,1-3.42-1.34c-.9-.93-1.22-2.48-1.22-4.53v-9.5h-2.7v-2.42h2.7V368Z" stroke="#000" stroke-miterlimit="10" stroke-width="2"/>
        <path d="M465.87,380.7c0,6.45-4.46,9.25-8.67,9.25-4.72,0-8.35-3.45-8.35-9,0-5.83,3.81-9.25,8.64-9.25C462.49,371.74,465.87,375.37,465.87,380.7Zm-13.82.18c0,3.82,2.2,6.7,5.29,6.7s5.29-2.85,5.29-6.77c0-2.95-1.47-6.7-5.21-6.7S452.05,377.57,452.05,380.88Z" stroke="#000" stroke-miterlimit="10" stroke-width="2"/>
        <path d="M469.87,376.85c0-1.8,0-3.28-.14-4.72h2.81l.18,2.88h.07a6.41,6.41,0,0,1,5.76-3.27c2.41,0,6.15,1.44,6.15,7.41v10.41h-3.17V379.51c0-2.8-1-5.14-4-5.14a4.49,4.49,0,0,0-4.24,3.24,4.33,4.33,0,0,0-.22,1.47v10.48h-3.17Z" stroke="#000" stroke-miterlimit="10" stroke-width="2"/>
        <path d="M262.64,428.94a11.07,11.07,0,0,0,5.62,1.58c3.2,0,5.07-1.69,5.07-4.13,0-2.27-1.29-3.57-4.57-4.83-4-1.4-6.41-3.45-6.41-6.87,0-3.78,3.14-6.59,7.85-6.59a11,11,0,0,1,5.36,1.19l-.86,2.55a9.68,9.68,0,0,0-4.61-1.15c-3.31,0-4.57,2-4.57,3.64,0,2.26,1.48,3.38,4.82,4.68,4.11,1.58,6.2,3.56,6.2,7.12,0,3.75-2.78,7-8.5,7a12.59,12.59,0,0,1-6.19-1.55Z" stroke="#000" stroke-miterlimit="10" stroke-width="2"/>
        <path d="M292.81,430.06h-.07a6.2,6.2,0,0,1-5.69,3.09c-4.07,0-7.38-3.53-7.38-8.82,0-6.51,4.21-9.39,7.88-9.39a5.74,5.74,0,0,1,5.37,3H293l.11-2.63h3c-.07,1.48-.1,3-.1,4.79v19.76h-3.17Zm0-7.67a5.27,5.27,0,0,0-.15-1.33,4.62,4.62,0,0,0-4.53-3.6c-3.28,0-5.26,2.77-5.26,6.69,0,3.46,1.66,6.48,5.15,6.48a4.73,4.73,0,0,0,4.54-3.45,5.49,5.49,0,0,0,.25-1.51Z" stroke="#000" stroke-miterlimit="10" stroke-width="2"/>
        <path d="M315.78,428c0,1.8,0,3.38.14,4.75h-2.81l-.18-2.85h-.07a6.54,6.54,0,0,1-5.76,3.24c-2.74,0-6-1.51-6-7.63V415.33h3.17V425c0,3.31,1,5.54,3.88,5.54a4.58,4.58,0,0,0,4.18-2.87,4.67,4.67,0,0,0,.29-1.62v-10.7h3.17Z" stroke="#000" stroke-miterlimit="10" stroke-width="2"/>
        <path d="M330.68,432.76l-.25-2.2h-.11a6.48,6.48,0,0,1-5.33,2.59,5,5,0,0,1-5.33-5c0-4.21,3.75-6.52,10.48-6.48v-.36c0-1.44-.4-4-4-4a8.73,8.73,0,0,0-4.54,1.29l-.72-2.08a10.79,10.79,0,0,1,5.73-1.55c5.33,0,6.62,3.63,6.62,7.13v6.51a24.19,24.19,0,0,0,.29,4.18Zm-.47-8.89c-3.45-.08-7.38.54-7.38,3.92a2.8,2.8,0,0,0,3,3A4.33,4.33,0,0,0,330,427.9a3.31,3.31,0,0,0,.18-1Z" stroke="#000" stroke-miterlimit="10" stroke-width="2"/>
        <path d="M338.38,420.77c0-2,0-3.82-.14-5.44H341l.11,3.42h.14a5.24,5.24,0,0,1,4.83-3.81,3.52,3.52,0,0,1,.9.11v3a5,5,0,0,0-1.08-.1c-2.23,0-3.82,1.69-4.25,4.06a9.31,9.31,0,0,0-.14,1.48v9.29h-3.14Z" stroke="#000" stroke-miterlimit="10" stroke-width="2"/>
        <path d="M351.56,424.62c.07,4.29,2.81,6.05,6,6.05a11.53,11.53,0,0,0,4.82-.9l.54,2.27a14.19,14.19,0,0,1-5.8,1.08c-5.36,0-8.56-3.53-8.56-8.79s3.09-9.39,8.17-9.39c5.69,0,7.2,5,7.2,8.21a11.08,11.08,0,0,1-.11,1.47Zm9.29-2.27c0-2-.83-5.14-4.39-5.14-3.21,0-4.61,3-4.86,5.14Z" stroke="#000" stroke-miterlimit="10" stroke-width="2"/>
        <path d="M375.57,408.78a36.61,36.61,0,0,1,6-.46c3.1,0,5.37.72,6.81,2a6.53,6.53,0,0,1,2.12,5.08,7.16,7.16,0,0,1-1.87,5.18c-1.66,1.76-4.36,2.66-7.42,2.66a10.83,10.83,0,0,1-2.52-.21v9.72h-3.13Zm3.13,11.7a10.58,10.58,0,0,0,2.6.25c3.77,0,6.08-1.83,6.08-5.18s-2.27-4.75-5.72-4.75a13.5,13.5,0,0,0-3,.25Z" stroke="#000" stroke-miterlimit="10" stroke-width="2"/>
        <path d="M403.33,432.76l-.25-2.2H403a6.49,6.49,0,0,1-5.33,2.59,5,5,0,0,1-5.33-5c0-4.21,3.75-6.52,10.48-6.48v-.36c0-1.44-.4-4-4-4a8.73,8.73,0,0,0-4.54,1.29l-.72-2.08a10.79,10.79,0,0,1,5.73-1.55c5.32,0,6.62,3.63,6.62,7.13v6.51a24.19,24.19,0,0,0,.29,4.18Zm-.47-8.89c-3.46-.08-7.38.54-7.38,3.92a2.8,2.8,0,0,0,3,3,4.33,4.33,0,0,0,4.21-2.91,3.31,3.31,0,0,0,.18-1Z" stroke="#000" stroke-miterlimit="10" stroke-width="2"/>
        <path d="M411,420.77c0-2,0-3.82-.14-5.44h2.77l.11,3.42h.14a5.23,5.23,0,0,1,4.83-3.81,3.52,3.52,0,0,1,.9.11v3a5,5,0,0,0-1.08-.1c-2.24,0-3.82,1.69-4.25,4.06a9.25,9.25,0,0,0-.15,1.48v9.29H411Z" stroke="#000" stroke-miterlimit="10" stroke-width="2"/>
        <path d="M426.08,423.33h.07c.43-.62,1.05-1.37,1.55-2l5.11-6h3.82l-6.73,7.17,7.66,10.26h-3.85l-6-8.35-1.62,1.8v6.55H423V407.2h3.13Z" stroke="#000" stroke-miterlimit="10" stroke-width="2"/>
        <path d="M437.92,437.11a24.32,24.32,0,0,0,4.54-14.72,23.79,23.79,0,0,0-4.54-14.61h2.45a22.86,22.86,0,0,1,4.72,14.65,23.32,23.32,0,0,1-4.72,14.68Z" stroke="#000" stroke-miterlimit="10" stroke-width="2"/>
      </g>
      <g>
        <path d="M532.78,242.3v14.36c0,5.43,2.41,7.74,5.65,7.74,3.6,0,5.91-2.38,5.91-7.74V242.3h3.16v14.14c0,7.45-3.92,10.51-9.18,10.51-5,0-8.71-2.84-8.71-10.36V242.3Z" stroke="#000" stroke-miterlimit="10" stroke-width="2"/>
        <path d="M552.83,253.85c0-1.8,0-3.28-.14-4.72h2.81l.18,2.88h.07a6.41,6.41,0,0,1,5.76-3.27c2.41,0,6.15,1.44,6.15,7.41v10.41H564.5V256.51c0-2.8-1-5.14-4-5.14a4.49,4.49,0,0,0-4.24,3.24,4.33,4.33,0,0,0-.22,1.47v10.48h-3.17Z" stroke="#000" stroke-miterlimit="10" stroke-width="2"/>
        <path d="M576.34,244.24a1.86,1.86,0,0,1-2,1.94,1.88,1.88,0,0,1-1.91-1.94,1.93,1.93,0,0,1,2-2A1.87,1.87,0,0,1,576.34,244.24Zm-3.53,22.32V249.13H576v17.43Z" stroke="#000" stroke-miterlimit="10" stroke-width="2"/>
        <path d="M597,257.7c0,6.45-4.46,9.25-8.67,9.25-4.72,0-8.35-3.45-8.35-9,0-5.83,3.81-9.25,8.64-9.25C593.62,248.74,597,252.37,597,257.7Zm-13.82.18c0,3.82,2.2,6.7,5.29,6.7s5.29-2.85,5.29-6.77c0-2.95-1.47-6.7-5.22-6.7S583.18,254.57,583.18,257.88Z" stroke="#000" stroke-miterlimit="10" stroke-width="2"/>
        <path d="M601,253.85c0-1.8,0-3.28-.14-4.72h2.8l.18,2.88h.08a6.41,6.41,0,0,1,5.76-3.27c2.41,0,6.15,1.44,6.15,7.41v10.41h-3.17V256.51c0-2.8-1-5.14-4-5.14a4.49,4.49,0,0,0-4.25,3.24,4.61,4.61,0,0,0-.21,1.47v10.48H601Z" stroke="#000" stroke-miterlimit="10" stroke-width="2"/>
        <path d="M628.29,262.74a11.1,11.1,0,0,0,5.61,1.58c3.21,0,5.08-1.69,5.08-4.13,0-2.27-1.3-3.57-4.57-4.83-4-1.4-6.41-3.45-6.41-6.87,0-3.78,3.13-6.59,7.85-6.59a11,11,0,0,1,5.36,1.19l-.86,2.55a9.72,9.72,0,0,0-4.61-1.15c-3.31,0-4.57,2-4.57,3.64,0,2.26,1.47,3.38,4.82,4.68,4.1,1.58,6.19,3.56,6.19,7.12,0,3.75-2.77,7-8.49,7a12.56,12.56,0,0,1-6.19-1.55Z" stroke="#000" stroke-miterlimit="10" stroke-width="2"/>
        <path d="M658.46,263.86h-.08A6.2,6.2,0,0,1,652.7,267c-4.07,0-7.38-3.53-7.38-8.82,0-6.51,4.21-9.39,7.88-9.39a5.72,5.72,0,0,1,5.36,3h.07l.11-2.63h3c-.07,1.48-.11,3-.11,4.79v19.76h-3.16Zm0-7.67a5.27,5.27,0,0,0-.15-1.33,4.62,4.62,0,0,0-4.53-3.6c-3.28,0-5.26,2.77-5.26,6.69,0,3.46,1.66,6.48,5.15,6.48A4.72,4.72,0,0,0,658.2,261a5.15,5.15,0,0,0,.26-1.51Z" stroke="#000" stroke-miterlimit="10" stroke-width="2"/>
        <path d="M681.42,261.81c0,1.79,0,3.38.15,4.75h-2.81l-.18-2.85h-.07a6.55,6.55,0,0,1-5.76,3.24c-2.74,0-6-1.51-6-7.63V249.13h3.16v9.65c0,3.31,1,5.54,3.89,5.54a4.59,4.59,0,0,0,4.18-2.87,4.67,4.67,0,0,0,.28-1.62v-10.7h3.17Z" stroke="#000" stroke-miterlimit="10" stroke-width="2"/>
        <path d="M696.33,266.56l-.26-2.2H696a6.5,6.5,0,0,1-5.33,2.59,5,5,0,0,1-5.33-5c0-4.21,3.74-6.52,10.48-6.48v-.36c0-1.44-.4-4-4-4a8.73,8.73,0,0,0-4.54,1.29l-.72-2.08a10.79,10.79,0,0,1,5.73-1.55c5.32,0,6.62,3.63,6.62,7.13v6.51a24.19,24.19,0,0,0,.29,4.18Zm-.47-8.89c-3.46-.08-7.38.54-7.38,3.92a2.8,2.8,0,0,0,3,3,4.35,4.35,0,0,0,4.21-2.91,3.31,3.31,0,0,0,.18-1Z" stroke="#000" stroke-miterlimit="10" stroke-width="2"/>
        <path d="M704,254.57c0-2,0-3.82-.14-5.44h2.77l.11,3.42h.14a5.22,5.22,0,0,1,4.82-3.81,3.08,3.08,0,0,1,.9.11v3a4.84,4.84,0,0,0-1.08-.1c-2.23,0-3.81,1.69-4.24,4.06a8.22,8.22,0,0,0-.15,1.48v9.29H704Z" stroke="#000" stroke-miterlimit="10" stroke-width="2"/>
        <path d="M717.21,258.42c.07,4.29,2.8,6.05,6,6.05a11.55,11.55,0,0,0,4.83-.9l.54,2.27a14.23,14.23,0,0,1-5.8,1.08c-5.36,0-8.57-3.53-8.57-8.79s3.1-9.39,8.17-9.39c5.69,0,7.2,5,7.2,8.21a13.66,13.66,0,0,1-.1,1.47Zm9.28-2.27c0-2-.82-5.14-4.39-5.14-3.2,0-4.61,3-4.86,5.14Z" stroke="#000" stroke-miterlimit="10" stroke-width="2"/>
      </g>
      <g>
        <path d="M132.72,25.76a15.5,15.5,0,0,1-6.41,1.16c-6.84,0-12-4.32-12-12.28,0-7.59,5.15-12.74,12.67-12.74A13,13,0,0,1,132.75,3L132,5.54a11.36,11.36,0,0,0-4.9-1c-5.69,0-9.47,3.63-9.47,10,0,5.94,3.42,9.76,9.33,9.76a12.59,12.59,0,0,0,5.11-1Z" stroke="#000" stroke-miterlimit="10" stroke-width="2"/>
        <path d="M137.9,18.42c.07,4.29,2.81,6,6,6a11.5,11.5,0,0,0,4.82-.9l.54,2.27a14.13,14.13,0,0,1-5.79,1.08c-5.37,0-8.57-3.53-8.57-8.79s3.09-9.39,8.17-9.39c5.69,0,7.2,5,7.2,8.21a11.08,11.08,0,0,1-.11,1.47Zm9.29-2.27c0-2-.83-5.14-4.39-5.14-3.21,0-4.61,3-4.86,5.14Z" stroke="#000" stroke-miterlimit="10" stroke-width="2"/>
        <path d="M154.17,13.85c0-1.8,0-3.28-.14-4.72h2.81L157,12h.07a6.41,6.41,0,0,1,5.76-3.27c2.41,0,6.15,1.44,6.15,7.41V26.56h-3.16v-10c0-2.8-1.05-5.14-4-5.14a4.49,4.49,0,0,0-4.25,3.24,4.33,4.33,0,0,0-.22,1.47V26.56h-3.17Z" stroke="#000" stroke-miterlimit="10" stroke-width="2"/>
        <path d="M177.83,4.13v5h4.53v2.42h-4.53v9.39c0,2.16.61,3.38,2.37,3.38a7.06,7.06,0,0,0,1.84-.21l.14,2.37a7.54,7.54,0,0,1-2.81.44A4.39,4.39,0,0,1,176,25.58c-.9-.93-1.22-2.48-1.22-4.53v-9.5H172V9.13h2.7V5Z" stroke="#000" stroke-miterlimit="10" stroke-width="2"/>
        <path d="M185.93,14.57c0-2.05,0-3.82-.15-5.44h2.77l.11,3.42h.15a5.22,5.22,0,0,1,4.82-3.81,3.13,3.13,0,0,1,.9.11v3a4.9,4.9,0,0,0-1.08-.1c-2.23,0-3.82,1.69-4.25,4.06a9.31,9.31,0,0,0-.14,1.48v9.29h-3.13Z" stroke="#000" stroke-miterlimit="10" stroke-width="2"/>
        <path d="M207.17,26.56l-.26-2.2h-.1A6.5,6.5,0,0,1,201.48,27a5,5,0,0,1-5.33-5c0-4.21,3.74-6.52,10.48-6.48v-.36c0-1.44-.4-4-4-4a8.7,8.7,0,0,0-4.54,1.29l-.72-2.08a10.78,10.78,0,0,1,5.72-1.55c5.33,0,6.63,3.63,6.63,7.13v6.51a24.19,24.19,0,0,0,.29,4.18Zm-.47-8.89c-3.46-.08-7.38.54-7.38,3.92a2.8,2.8,0,0,0,3,3,4.35,4.35,0,0,0,4.21-2.91,3.31,3.31,0,0,0,.18-1Z" stroke="#000" stroke-miterlimit="10" stroke-width="2"/>
        <path d="M214.87,1H218V26.56h-3.17Z" stroke="#000" stroke-miterlimit="10" stroke-width="2"/>
        <path d="M231.11,2.58a36.61,36.61,0,0,1,6-.46c3.09,0,5.36.72,6.8,2A6.53,6.53,0,0,1,246,9.21a7.12,7.12,0,0,1-1.87,5.18c-1.65,1.76-4.35,2.66-7.41,2.66a10.78,10.78,0,0,1-2.52-.21v9.72h-3.13Zm3.13,11.7a10.5,10.5,0,0,0,2.59.25c3.78,0,6.08-1.83,6.08-5.18,0-3.2-2.27-4.75-5.72-4.75a13.39,13.39,0,0,0-2.95.25Z" stroke="#000" stroke-miterlimit="10" stroke-width="2"/>
        <path d="M258.86,26.56l-.25-2.2h-.11A6.48,6.48,0,0,1,253.17,27a5,5,0,0,1-5.32-5c0-4.21,3.74-6.52,10.47-6.48v-.36c0-1.44-.39-4-4-4a8.66,8.66,0,0,0-4.53,1.29l-.72-2.08a10.75,10.75,0,0,1,5.72-1.55c5.33,0,6.62,3.63,6.62,7.13v6.51a25.23,25.23,0,0,0,.29,4.18Zm-.47-8.89c-3.45-.08-7.38.54-7.38,3.92a2.8,2.8,0,0,0,3,3,4.33,4.33,0,0,0,4.21-2.91,3.31,3.31,0,0,0,.18-1Z" stroke="#000" stroke-miterlimit="10" stroke-width="2"/>
        <path d="M266.57,14.57c0-2.05,0-3.82-.15-5.44h2.77l.11,3.42h.15a5.22,5.22,0,0,1,4.82-3.81,3.13,3.13,0,0,1,.9.11v3a4.9,4.9,0,0,0-1.08-.1c-2.23,0-3.82,1.69-4.25,4.06a9.31,9.31,0,0,0-.14,1.48v9.29h-3.13Z" stroke="#000" stroke-miterlimit="10" stroke-width="2"/>
        <path d="M281.61,17.13h.08c.43-.62,1-1.37,1.54-2l5.11-6h3.82l-6.73,7.17,7.67,10.26h-3.86l-6-8.35L281.61,20v6.55h-3.13V1h3.13Z" stroke="#000" stroke-miterlimit="10" stroke-width="2"/>
      </g>
      <g>
        <path d="M389.88,101H382.5V98.3h18V101H393v21.6h-3.16Z" stroke="#000" stroke-miterlimit="10" stroke-width="2"/>
        <path d="M406.15,100.24a2,2,0,0,1-3.92,0,1.92,1.92,0,0,1,2-2A1.88,1.88,0,0,1,406.15,100.24Zm-3.53,22.32V105.13h3.17v17.43Z" stroke="#000" stroke-miterlimit="10" stroke-width="2"/>
        <path d="M411.05,109.85c0-1.8,0-3.28-.15-4.72h2.77l.15,2.81h.1a6,6,0,0,1,5.48-3.2,5.16,5.16,0,0,1,4.93,3.49h.07a7.2,7.2,0,0,1,1.94-2.27,6,6,0,0,1,3.85-1.22c2.31,0,5.73,1.51,5.73,7.56v10.26h-3.1v-9.87c0-3.34-1.22-5.36-3.78-5.36a4.09,4.09,0,0,0-3.74,2.88,5.34,5.34,0,0,0-.25,1.58v10.77H422V112.12c0-2.77-1.22-4.79-3.63-4.79a4.34,4.34,0,0,0-3.93,3.17,4.38,4.38,0,0,0-.25,1.55v10.51h-3.09Z" stroke="#000" stroke-miterlimit="10" stroke-width="2"/>
        <path d="M442.83,114.42c.07,4.29,2.81,6,6,6a11.5,11.5,0,0,0,4.82-.9l.54,2.27a14.13,14.13,0,0,1-5.79,1.08c-5.37,0-8.57-3.53-8.57-8.79s3.09-9.39,8.17-9.39c5.69,0,7.2,5,7.2,8.21a11.08,11.08,0,0,1-.11,1.47Zm9.29-2.27c0-2-.83-5.14-4.39-5.14-3.21,0-4.61,2.95-4.86,5.14Z" stroke="#000" stroke-miterlimit="10" stroke-width="2"/>
        <path d="M458.67,119.32a8.33,8.33,0,0,0,4.18,1.26c2.3,0,3.38-1.16,3.38-2.59s-.9-2.34-3.24-3.21c-3.13-1.11-4.61-2.84-4.61-4.93,0-2.81,2.27-5.11,6-5.11a8.64,8.64,0,0,1,4.28,1.08l-.79,2.3a6.84,6.84,0,0,0-3.57-1c-1.87,0-2.91,1.08-2.91,2.38s1,2.09,3.31,3c3,1.15,4.57,2.67,4.57,5.26,0,3.06-2.37,5.22-6.51,5.22a9.94,9.94,0,0,1-4.9-1.19Z" stroke="#000" stroke-miterlimit="10" stroke-width="2"/>
        <path d="M480.67,118.74a11.1,11.1,0,0,0,5.61,1.58c3.21,0,5.08-1.69,5.08-4.13,0-2.27-1.3-3.57-4.57-4.83-4-1.4-6.41-3.45-6.41-6.87,0-3.78,3.13-6.59,7.85-6.59a11,11,0,0,1,5.36,1.19l-.86,2.55a9.68,9.68,0,0,0-4.61-1.15c-3.31,0-4.57,2-4.57,3.64,0,2.26,1.47,3.38,4.82,4.68,4.11,1.58,6.19,3.56,6.19,7.12,0,3.75-2.77,7-8.49,7a12.56,12.56,0,0,1-6.19-1.55Z" stroke="#000" stroke-miterlimit="10" stroke-width="2"/>
        <path d="M510.84,119.86h-.08a6.2,6.2,0,0,1-5.68,3.09c-4.07,0-7.38-3.53-7.38-8.82,0-6.51,4.21-9.39,7.88-9.39a5.72,5.72,0,0,1,5.36,3H511l.11-2.63h3c-.07,1.48-.11,3-.11,4.79v19.76h-3.16Zm0-7.67a5.27,5.27,0,0,0-.15-1.33,4.62,4.62,0,0,0-4.53-3.6c-3.28,0-5.26,2.77-5.26,6.69,0,3.46,1.66,6.48,5.15,6.48a4.72,4.72,0,0,0,4.53-3.45,5.15,5.15,0,0,0,.26-1.51Z" stroke="#000" stroke-miterlimit="10" stroke-width="2"/>
        <path d="M533.8,117.81c0,1.79,0,3.38.15,4.75h-2.81l-.18-2.85h-.07a6.55,6.55,0,0,1-5.76,3.24c-2.74,0-6-1.51-6-7.63V105.13h3.16v9.65c0,3.31,1,5.54,3.89,5.54a4.58,4.58,0,0,0,4.18-2.87,4.67,4.67,0,0,0,.28-1.62v-10.7h3.17Z" stroke="#000" stroke-miterlimit="10" stroke-width="2"/>
        <path d="M548.71,122.56l-.26-2.2h-.1A6.49,6.49,0,0,1,543,123a5,5,0,0,1-5.33-5c0-4.21,3.75-6.52,10.48-6.48v-.36c0-1.44-.4-4-4-4a8.73,8.73,0,0,0-4.54,1.29l-.72-2.08a10.79,10.79,0,0,1,5.73-1.55c5.32,0,6.62,3.63,6.62,7.13v6.51a24.19,24.19,0,0,0,.29,4.18Zm-.47-8.89c-3.46-.08-7.38.54-7.38,3.92a2.8,2.8,0,0,0,3,3,4.35,4.35,0,0,0,4.21-2.91,3.31,3.31,0,0,0,.18-1Z" stroke="#000" stroke-miterlimit="10" stroke-width="2"/>
        <path d="M556.41,110.57c0-2,0-3.82-.14-5.44H559l.11,3.42h.14a5.22,5.22,0,0,1,4.82-3.81,3.08,3.08,0,0,1,.9.11v3a4.81,4.81,0,0,0-1.07-.1c-2.24,0-3.82,1.69-4.25,4.06a9.25,9.25,0,0,0-.15,1.48v9.29h-3.13Z" stroke="#000" stroke-miterlimit="10" stroke-width="2"/>
        <path d="M569.59,114.42c.07,4.29,2.81,6,6,6a11.55,11.55,0,0,0,4.83-.9l.54,2.27a14.23,14.23,0,0,1-5.8,1.08c-5.36,0-8.57-3.53-8.57-8.79s3.1-9.39,8.18-9.39c5.68,0,7.19,5,7.19,8.21a13.66,13.66,0,0,1-.1,1.47Zm9.28-2.27c0-2-.82-5.14-4.39-5.14-3.2,0-4.6,2.95-4.86,5.14Z" stroke="#000" stroke-miterlimit="10" stroke-width="2"/>
      </g>
      <g>
        <path d="M504,679.62a30.08,30.08,0,0,1,5.72-.5c3.13,0,5.15.54,6.66,1.76a5.08,5.08,0,0,1,2,4.28,5.76,5.76,0,0,1-4.1,5.33v.07a6.27,6.27,0,0,1,5,6.09,6.49,6.49,0,0,1-2,4.85c-1.69,1.55-4.42,2.27-8.38,2.27a37.6,37.6,0,0,1-4.86-.28Zm3.13,9.93h2.84c3.31,0,5.26-1.72,5.26-4.06,0-2.85-2.16-4-5.33-4a14.15,14.15,0,0,0-2.77.21Zm0,11.63a16.34,16.34,0,0,0,2.63.15c3.23,0,6.22-1.19,6.22-4.72,0-3.31-2.84-4.68-6.26-4.68h-2.59Z" stroke="#000" stroke-miterlimit="10" stroke-width="2"/>
        <path d="M523.36,691.57c0-2.05,0-3.82-.14-5.44H526l.11,3.42h.14a5.22,5.22,0,0,1,4.82-3.81,3.13,3.13,0,0,1,.9.11v3a4.9,4.9,0,0,0-1.08-.1c-2.23,0-3.81,1.69-4.24,4.06a8.22,8.22,0,0,0-.15,1.48v9.29h-3.13Z" stroke="#000" stroke-miterlimit="10" stroke-width="2"/>
        <path d="M550.54,694.7c0,6.45-4.47,9.25-8.68,9.25-4.71,0-8.35-3.45-8.35-9,0-5.83,3.82-9.25,8.64-9.25C547.15,685.74,550.54,689.37,550.54,694.7Zm-13.82.18c0,3.82,2.19,6.7,5.29,6.7s5.29-2.85,5.29-6.77c0-2.95-1.48-6.7-5.22-6.7S536.72,691.57,536.72,694.88Z" stroke="#000" stroke-miterlimit="10" stroke-width="2"/>
        <path d="M570.3,694.7c0,6.45-4.46,9.25-8.67,9.25-4.72,0-8.35-3.45-8.35-9,0-5.83,3.81-9.25,8.63-9.25C566.92,685.74,570.3,689.37,570.3,694.7Zm-13.82.18c0,3.82,2.19,6.7,5.29,6.7s5.29-2.85,5.29-6.77c0-2.95-1.47-6.7-5.22-6.7S556.48,691.57,556.48,694.88Z" stroke="#000" stroke-miterlimit="10" stroke-width="2"/>
        <path d="M577.43,694.13h.07c.43-.62,1-1.37,1.55-2l5.11-6H588l-6.73,7.17,7.66,10.26h-3.85l-6-8.35L577.43,697v6.56H574.3V678h3.13Z" stroke="#000" stroke-miterlimit="10" stroke-width="2"/>
        <path d="M591.79,678H595v25.56h-3.17Z" stroke="#000" stroke-miterlimit="10" stroke-width="2"/>
        <path d="M601.44,686.13l3.82,10.3c.39,1.15.83,2.52,1.11,3.56h.08c.32-1,.68-2.37,1.11-3.63L611,686.13h3.34l-4.75,12.42c-2.26,6-3.81,9-6,10.91a8.54,8.54,0,0,1-3.89,2l-.79-2.66a8.44,8.44,0,0,0,2.77-1.55,9.62,9.62,0,0,0,2.66-3.53,2.15,2.15,0,0,0,.26-.75,2.9,2.9,0,0,0-.22-.83L598,686.13Z" stroke="#000" stroke-miterlimit="10" stroke-width="2"/>
        <path d="M617.25,690.85c0-1.8,0-3.27-.15-4.72h2.81l.18,2.88h.07a6.42,6.42,0,0,1,5.76-3.27c2.41,0,6.16,1.44,6.16,7.41v10.41h-3.17v-10c0-2.8-1-5.14-4-5.14a4.49,4.49,0,0,0-4.25,3.24,4.6,4.6,0,0,0-.22,1.47v10.48h-3.16Z" stroke="#000" stroke-miterlimit="10" stroke-width="2"/>
        <path d="M645,679.62a30.28,30.28,0,0,1,5.73-.5c3.13,0,5.15.54,6.66,1.76a5.08,5.08,0,0,1,2,4.28,5.76,5.76,0,0,1-4.1,5.33v.07a6.27,6.27,0,0,1,5,6.09,6.49,6.49,0,0,1-2,4.85c-1.69,1.55-4.43,2.27-8.39,2.27a37.85,37.85,0,0,1-4.86-.28Zm3.14,9.93h2.84c3.31,0,5.26-1.72,5.26-4.06,0-2.85-2.16-4-5.33-4a14.15,14.15,0,0,0-2.77.21Zm0,11.63a16.28,16.28,0,0,0,2.62.15c3.24,0,6.23-1.19,6.23-4.72,0-3.31-2.84-4.68-6.26-4.68H648.1Z" stroke="#000" stroke-miterlimit="10" stroke-width="2"/>
        <path d="M664.37,691.57c0-2.05,0-3.82-.15-5.44H667l.1,3.42h.15a5.22,5.22,0,0,1,4.82-3.81,3.13,3.13,0,0,1,.9.11v3a4.9,4.9,0,0,0-1.08-.1c-2.23,0-3.81,1.69-4.25,4.06a9.31,9.31,0,0,0-.14,1.48v9.29h-3.13Z" stroke="#000" stroke-miterlimit="10" stroke-width="2"/>
        <path d="M679.81,681.24a1.86,1.86,0,0,1-2,1.94,1.88,1.88,0,0,1-1.91-1.94,1.93,1.93,0,0,1,2-2A1.87,1.87,0,0,1,679.81,681.24Zm-3.52,22.32V686.13h3.16v17.43Z" stroke="#000" stroke-miterlimit="10" stroke-width="2"/>
        <path d="M699.76,678v21.06c0,1.54,0,3.31.14,4.5h-2.85l-.14-3h-.07A6.44,6.44,0,0,1,690.9,704c-4.21,0-7.45-3.56-7.45-8.85,0-5.8,3.56-9.36,7.81-9.36a5.85,5.85,0,0,1,5.26,2.66h.07V678Zm-3.17,15.23a5.56,5.56,0,0,0-.15-1.34,4.66,4.66,0,0,0-4.57-3.67c-3.27,0-5.22,2.88-5.22,6.73,0,3.53,1.73,6.45,5.15,6.45a4.76,4.76,0,0,0,4.64-3.78,5.43,5.43,0,0,0,.15-1.37Z" stroke="#000" stroke-miterlimit="10" stroke-width="2"/>
        <path d="M720,686.13c-.07,1.26-.14,2.67-.14,4.79V701c0,4-.79,6.44-2.49,8a9.18,9.18,0,0,1-6.33,2.09,11.23,11.23,0,0,1-5.8-1.44l.8-2.41a9.81,9.81,0,0,0,5.11,1.37c3.24,0,5.61-1.7,5.61-6.09v-1.94h-.07a6.21,6.21,0,0,1-5.54,2.92c-4.32,0-7.42-3.68-7.42-8.5,0-5.9,3.85-9.25,7.85-9.25a5.81,5.81,0,0,1,5.44,3h.07l.14-2.63ZM716.75,693a4.62,4.62,0,0,0-.18-1.44,4.57,4.57,0,0,0-4.43-3.35c-3,0-5.18,2.56-5.18,6.59,0,3.42,1.72,6.26,5.14,6.26a4.64,4.64,0,0,0,4.4-3.24,5.82,5.82,0,0,0,.25-1.69Z" stroke="#000" stroke-miterlimit="10" stroke-width="2"/>
        <path d="M726.9,695.42c.07,4.29,2.81,6.05,6,6.05a11.53,11.53,0,0,0,4.82-.9l.54,2.27a14.23,14.23,0,0,1-5.8,1.08c-5.36,0-8.56-3.53-8.56-8.79s3.09-9.39,8.17-9.39c5.68,0,7.2,5,7.2,8.21a13.13,13.13,0,0,1-.11,1.47Zm9.29-2.27c0-2-.83-5.14-4.39-5.14-3.21,0-4.61,3-4.86,5.14Z" stroke="#000" stroke-miterlimit="10" stroke-width="2"/>
      </g>
      <g>
        <path d="M86.62,536.62a30.24,30.24,0,0,1,5.72-.5c3.13,0,5.15.54,6.66,1.76a5.09,5.09,0,0,1,2,4.28,5.77,5.77,0,0,1-4.11,5.33v.07a6.26,6.26,0,0,1,5,6.09,6.53,6.53,0,0,1-2,4.85c-1.7,1.55-4.43,2.27-8.39,2.27a37.6,37.6,0,0,1-4.86-.28Zm3.13,9.93h2.84c3.32,0,5.26-1.72,5.26-4.06,0-2.85-2.16-4-5.33-4a14.15,14.15,0,0,0-2.77.21Zm0,11.63a16.34,16.34,0,0,0,2.63.15c3.24,0,6.23-1.19,6.23-4.72,0-3.31-2.85-4.68-6.27-4.68H89.75Z" stroke="#000" stroke-miterlimit="10" stroke-width="2"/>
        <path d="M115.67,560.56l-.25-2.2h-.11A6.48,6.48,0,0,1,110,561a5,5,0,0,1-5.33-5c0-4.21,3.75-6.52,10.48-6.48v-.36c0-1.44-.4-4-4-4a8.73,8.73,0,0,0-4.54,1.29l-.72-2.08a10.79,10.79,0,0,1,5.73-1.55c5.33,0,6.62,3.63,6.62,7.13v6.51a24.19,24.19,0,0,0,.29,4.18Zm-.47-8.89c-3.45-.08-7.38.54-7.38,3.92a2.8,2.8,0,0,0,3,3A4.33,4.33,0,0,0,115,555.7a3.31,3.31,0,0,0,.18-1Z" stroke="#000" stroke-miterlimit="10" stroke-width="2"/>
        <path d="M127.05,538.13v5h4.53v2.42h-4.53v9.39c0,2.16.61,3.39,2.37,3.39a7,7,0,0,0,1.84-.22l.14,2.38a7.79,7.79,0,0,1-2.81.43,4.39,4.39,0,0,1-3.42-1.34c-.9-.93-1.22-2.48-1.22-4.53v-9.5h-2.7v-2.42H124V539Z" stroke="#000" stroke-miterlimit="10" stroke-width="2"/>
        <path d="M139,538.13v5h4.54v2.42H139v9.39c0,2.16.61,3.39,2.38,3.39a6.83,6.83,0,0,0,1.83-.22l.15,2.38a7.83,7.83,0,0,1-2.81.43,4.37,4.37,0,0,1-3.42-1.34c-.9-.93-1.22-2.48-1.22-4.53v-9.5h-2.7v-2.42h2.7V539Z" stroke="#000" stroke-miterlimit="10" stroke-width="2"/>
        <path d="M148.61,552.42c.07,4.29,2.81,6.05,6,6.05a11.53,11.53,0,0,0,4.82-.9l.54,2.27a14.19,14.19,0,0,1-5.8,1.08c-5.36,0-8.56-3.53-8.56-8.79s3.09-9.39,8.17-9.39c5.69,0,7.2,5,7.2,8.21a11.08,11.08,0,0,1-.11,1.47Zm9.29-2.27c0-2-.83-5.14-4.39-5.14-3.21,0-4.61,3-4.86,5.14Z" stroke="#000" stroke-miterlimit="10" stroke-width="2"/>
        <path d="M164.88,548.57c0-2.05,0-3.82-.14-5.44h2.77l.11,3.42h.14a5.22,5.22,0,0,1,4.83-3.81,3.13,3.13,0,0,1,.9.11v3a5,5,0,0,0-1.08-.1c-2.24,0-3.82,1.69-4.25,4.06a9.25,9.25,0,0,0-.15,1.48v9.29h-3.13Z" stroke="#000" stroke-miterlimit="10" stroke-width="2"/>
        <path d="M178.71,543.13l3.81,10.3c.4,1.15.83,2.52,1.12,3.56h.07c.32-1,.68-2.37,1.12-3.63l3.45-10.23h3.35l-4.75,12.42c-2.27,6-3.82,9-6,10.91a8.49,8.49,0,0,1-3.89,2l-.79-2.66A8.34,8.34,0,0,0,179,564.3a9.52,9.52,0,0,0,2.67-3.53,2.3,2.3,0,0,0,.25-.75,2.59,2.59,0,0,0-.22-.83l-6.44-16.06Z" stroke="#000" stroke-miterlimit="10" stroke-width="2"/>
        <path d="M202.25,536.58a36.61,36.61,0,0,1,6-.46c3.1,0,5.36.71,6.8,2a6.51,6.51,0,0,1,2.13,5.08,7.16,7.16,0,0,1-1.87,5.18c-1.66,1.76-4.36,2.66-7.42,2.66a10.83,10.83,0,0,1-2.52-.21v9.72h-3.13Zm3.13,11.7a10.55,10.55,0,0,0,2.59.25c3.78,0,6.09-1.83,6.09-5.18s-2.27-4.75-5.73-4.75a13.46,13.46,0,0,0-3,.25Z" stroke="#000" stroke-miterlimit="10" stroke-width="2"/>
        <path d="M230,560.56l-.26-2.2h-.1a6.5,6.5,0,0,1-5.33,2.59,5,5,0,0,1-5.33-5c0-4.21,3.74-6.52,10.47-6.48v-.36c0-1.44-.39-4-4-4a8.7,8.7,0,0,0-4.54,1.29l-.72-2.08a10.78,10.78,0,0,1,5.72-1.55c5.33,0,6.63,3.63,6.63,7.13v6.51a25.3,25.3,0,0,0,.28,4.18Zm-.47-8.89c-3.46-.08-7.38.54-7.38,3.92a2.8,2.8,0,0,0,3,3,4.35,4.35,0,0,0,4.21-2.91,3.64,3.64,0,0,0,.18-1Z" stroke="#000" stroke-miterlimit="10" stroke-width="2"/>
        <path d="M237.71,548.57c0-2.05,0-3.82-.14-5.44h2.77l.11,3.42h.14a5.22,5.22,0,0,1,4.82-3.81,3.13,3.13,0,0,1,.9.11v3a4.9,4.9,0,0,0-1.08-.1c-2.23,0-3.81,1.69-4.24,4.06a8.22,8.22,0,0,0-.15,1.48v9.29h-3.13Z" stroke="#000" stroke-miterlimit="10" stroke-width="2"/>
        <path d="M252.76,551.13h.07c.43-.62,1-1.37,1.55-2l5.11-6h3.81l-6.73,7.17,7.67,10.26h-3.85l-6-8.35L252.76,554v6.56h-3.13V535h3.13Z" stroke="#000" stroke-miterlimit="10" stroke-width="2"/>
      </g>
      <g>
        <path d="M1017.29,549.18h-9.43v8.75h10.51v2.63h-13.64V536.3h13.1v2.62h-10v7.67h9.43Z" stroke="#000" stroke-miterlimit="10" stroke-width="2"/>
        <path d="M1032,560.56l-.25-2.2h-.11a6.49,6.49,0,0,1-5.33,2.59,5,5,0,0,1-5.33-5c0-4.21,3.75-6.52,10.48-6.48v-.36c0-1.44-.4-4-4-4a8.73,8.73,0,0,0-4.54,1.29l-.72-2.08a10.79,10.79,0,0,1,5.73-1.55c5.32,0,6.62,3.63,6.62,7.13v6.51a24.19,24.19,0,0,0,.29,4.18Zm-.47-8.89c-3.46-.08-7.38.54-7.38,3.92a2.8,2.8,0,0,0,3,3,4.33,4.33,0,0,0,4.21-2.91,3.31,3.31,0,0,0,.18-1Z" stroke="#000" stroke-miterlimit="10" stroke-width="2"/>
        <path d="M1039.25,557.32a8.33,8.33,0,0,0,4.18,1.26c2.3,0,3.38-1.16,3.38-2.59s-.9-2.34-3.24-3.21c-3.13-1.11-4.61-2.84-4.61-4.93,0-2.81,2.27-5.11,6-5.11a8.65,8.65,0,0,1,4.29,1.08l-.8,2.3a6.77,6.77,0,0,0-3.56-1c-1.87,0-2.91,1.08-2.91,2.38s1,2.09,3.31,3c3,1.15,4.57,2.67,4.57,5.26,0,3.06-2.38,5.22-6.52,5.22a9.92,9.92,0,0,1-4.89-1.19Z" stroke="#000" stroke-miterlimit="10" stroke-width="2"/>
        <path d="M1057.75,538.13v5h4.54v2.42h-4.54v9.39c0,2.16.62,3.39,2.38,3.39a6.83,6.83,0,0,0,1.83-.22l.15,2.38a7.79,7.79,0,0,1-2.81.43,4.39,4.39,0,0,1-3.42-1.34c-.9-.93-1.22-2.48-1.22-4.53v-9.5H1052v-2.42h2.7V539Z" stroke="#000" stroke-miterlimit="10" stroke-width="2"/>
        <path d="M1073.59,536.62a33.15,33.15,0,0,1,6-.5c3.34,0,5.5.61,7,2a6,6,0,0,1,1.9,4.6,6.35,6.35,0,0,1-4.57,6.19V549c1.87.65,3,2.38,3.56,4.9a38.8,38.8,0,0,0,1.88,6.66h-3.24a30.85,30.85,0,0,1-1.62-5.8c-.72-3.35-2-4.61-4.86-4.71h-3v10.51h-3.14Zm3.14,11h3.2c3.35,0,5.47-1.84,5.47-4.61,0-3.13-2.27-4.5-5.58-4.53a12.47,12.47,0,0,0-3.09.29Z" stroke="#000" stroke-miterlimit="10" stroke-width="2"/>
        <path d="M1096.74,538.24a1.86,1.86,0,0,1-2,1.94,1.88,1.88,0,0,1-1.91-1.94,1.93,1.93,0,0,1,2-2A1.87,1.87,0,0,1,1096.74,538.24Zm-3.53,22.32V543.13h3.17v17.43Z" stroke="#000" stroke-miterlimit="10" stroke-width="2"/>
        <path d="M1102.86,543.13l3.42,9.8a43.35,43.35,0,0,1,1.4,4.46h.11c.4-1.44.9-2.88,1.48-4.46l3.38-9.8H1116l-6.83,17.43h-3l-6.62-17.43Z" stroke="#000" stroke-miterlimit="10" stroke-width="2"/>
        <path d="M1120.36,552.42c.07,4.29,2.8,6.05,6,6.05a11.55,11.55,0,0,0,4.83-.9l.54,2.27a14.23,14.23,0,0,1-5.8,1.08c-5.36,0-8.57-3.53-8.57-8.79s3.1-9.39,8.17-9.39c5.69,0,7.2,5,7.2,8.21a13.66,13.66,0,0,1-.1,1.47Zm9.28-2.27c0-2-.82-5.14-4.39-5.14-3.2,0-4.61,3-4.86,5.14Z" stroke="#000" stroke-miterlimit="10" stroke-width="2"/>
        <path d="M1136.63,548.57c0-2.05,0-3.82-.15-5.44h2.78l.1,3.42h.15a5.22,5.22,0,0,1,4.82-3.81,3.13,3.13,0,0,1,.9.11v3a4.9,4.9,0,0,0-1.08-.1c-2.23,0-3.81,1.69-4.25,4.06a9.31,9.31,0,0,0-.14,1.48v9.29h-3.13Z" stroke="#000" stroke-miterlimit="10" stroke-width="2"/>
      </g>
    </g>
    <g id="Downtown_Connections">
      <polygon points="553.96 594.84 575.58 632.36 597.19 669.88 618.88 632.4 640.56 594.91 610.26 594.89 610.54 282.89 585.04 282.87 584.76 594.87 553.96 594.84" fill="#b3b3b3" stroke="#3fa9f5" stroke-miterlimit="10" stroke-width="2"/>
      <polygon points="596.84 807.52 601.7 816.08 606.57 824.64 611.55 816.15 616.53 807.66 609.64 807.61 610.13 736.68 604.34 736.64 603.84 807.57 596.84 807.52" fill="#b3b3b3" stroke="#3fa9f5" stroke-miterlimit="10" stroke-width="2"/>
      <polygon points="811.2 696.72 798.91 720.34 786.62 743.96 813.22 742.79 839.82 741.63 829.8 725.92 991.58 622.81 983.15 609.59 821.38 712.69 811.2 696.72" fill="#b3b3b3" stroke="#3fa9f5" stroke-miterlimit="10" stroke-width="2"/>
      <polygon points="440.55 642.2 462.85 642.45 485.14 642.7 474.21 623.27 463.28 603.84 455.33 617.26 317.13 535.38 310.43 546.67 448.64 628.55 440.55 642.2" fill="#b3b3b3" stroke="#3fa9f5" stroke-miterlimit="10" stroke-width="2"/>
      <polygon points="223.94 497.38 222.49 505.77 221.04 514.16 229.04 511.22 237.03 508.28 232.45 504.47 271.74 457.33 267.89 454.12 228.6 501.26 223.94 497.38" fill="#b3b3b3" stroke="#3fa9f5" stroke-miterlimit="10" stroke-width="2"/>
      <polygon points="384.8 318.62 378.81 331.81 372.81 345.01 387.24 343.6 401.66 342.2 395.76 333.95 480.71 273.23 475.75 266.29 390.8 327.01 384.8 318.62" fill="#b3b3b3" stroke="#3fa9f5" stroke-miterlimit="10" stroke-width="2"/>
      <polygon points="989.81 481.21 1031.95 491.2 1074.08 501.2 1061.67 459.72 1049.26 418.23 1028.46 440.27 801.58 226.09 784.08 244.64 1010.96 458.81 989.81 481.21" fill="#b3b3b3" stroke="#3fa9f5" stroke-miterlimit="10" stroke-width="2"/>
      <polygon points="525.51 209.18 535.81 212.64 546.11 216.11 543.96 205.46 541.81 194.81 536.11 199.84 484.35 141.12 479.55 145.35 531.31 204.07 525.51 209.18" fill="#b3b3b3" stroke="#3fa9f5" stroke-miterlimit="10" stroke-width="2"/>
      <polygon points="384.12 74.32 395.72 76.18 407.31 78.04 403.13 67.07 398.94 56.1 393.76 62.48 328.12 9.09 323.75 14.45 389.39 67.84 384.12 74.32" fill="#b3b3b3" stroke="#3fa9f5" stroke-miterlimit="10" stroke-width="2"/>
      <polygon points="1.72 593.38 22.94 631.12 44.17 668.86 66.24 631.61 88.32 594.36 58.02 594.02 61.57 282.04 36.07 281.75 32.52 593.73 1.72 593.38" fill="#3fa9f5" stroke="#000" stroke-miterlimit="10" stroke-width="2"/>
    </g>
  </g>
</svg>
